<svg xmlns="http://www.w3.org/2000/svg" xmlns:xlink="http://www.w3.org/1999/xlink" width="1500" height="500" viewBox="0 0 1500 500">
  <defs>
    <clipPath id="clip-Twitter_banner">
      <rect width="1500" height="500"/>
    </clipPath>
  </defs>
  <g id="Twitter_banner" data-name="Twitter banner" clip-path="url(#clip-Twitter_banner)">
    <rect width="1500" height="500" fill="#fff"/>
    <rect id="Rectangle_38" data-name="Rectangle 38" width="1500" height="500" fill="#212121"/>
    <g id="Background">
      <rect id="Background-2" data-name="Background" width="1329" height="470" fill="#212121"/>
      <path id="Path_1" data-name="Path 1" d="M59.942,68.7H9.882A9.894,9.894,0,0,0,0,78.583V109.9a9.894,9.894,0,0,0,9.882,9.883h50.06a9.894,9.894,0,0,0,9.882-9.883V78.583A9.894,9.894,0,0,0,59.942,68.7ZM25.34,84.423l-10.4,10.4,9.245,9.245a2.045,2.045,0,0,1-2.892,2.892L10.6,96.264a2.045,2.045,0,0,1,0-2.893L22.446,81.53a2.046,2.046,0,1,1,2.894,2.892ZM42.213,79.61,31.4,110.238a2.046,2.046,0,0,1-3.858-1.362L38.355,78.248a2.046,2.046,0,0,1,3.858,1.362Zm17.006,15.5L47.378,106.956a2.046,2.046,0,0,1-2.894-2.892l10.4-10.4-9.245-9.245a2.045,2.045,0,0,1,2.892-2.892L59.219,92.222a2.045,2.045,0,0,1,0,2.892Z" transform="translate(0 -68.7)" fill="#262626"/>
      <path id="Path_1-2" data-name="Path 1" d="M59.942,68.7H9.882A9.894,9.894,0,0,0,0,78.583V109.9a9.894,9.894,0,0,0,9.882,9.883h50.06a9.894,9.894,0,0,0,9.882-9.883V78.583A9.894,9.894,0,0,0,59.942,68.7ZM25.34,84.423l-10.4,10.4,9.245,9.245a2.045,2.045,0,0,1-2.892,2.892L10.6,96.264a2.045,2.045,0,0,1,0-2.893L22.446,81.53a2.046,2.046,0,1,1,2.894,2.892ZM42.213,79.61,31.4,110.238a2.046,2.046,0,0,1-3.858-1.362L38.355,78.248a2.046,2.046,0,0,1,3.858,1.362Zm17.006,15.5L47.378,106.956a2.046,2.046,0,0,1-2.894-2.892l10.4-10.4-9.245-9.245a2.045,2.045,0,0,1,2.892-2.892L59.219,92.222a2.045,2.045,0,0,1,0,2.892Z" transform="translate(95 -68.7)" fill="#262626"/>
      <path id="Path_1-3" data-name="Path 1" d="M59.942,68.7H9.882A9.894,9.894,0,0,0,0,78.583V109.9a9.894,9.894,0,0,0,9.882,9.883h50.06a9.894,9.894,0,0,0,9.882-9.883V78.583A9.894,9.894,0,0,0,59.942,68.7ZM25.34,84.423l-10.4,10.4,9.245,9.245a2.045,2.045,0,0,1-2.892,2.892L10.6,96.264a2.045,2.045,0,0,1,0-2.893L22.446,81.53a2.046,2.046,0,1,1,2.894,2.892ZM42.213,79.61,31.4,110.238a2.046,2.046,0,0,1-3.858-1.362L38.355,78.248a2.046,2.046,0,0,1,3.858,1.362Zm17.006,15.5L47.378,106.956a2.046,2.046,0,0,1-2.894-2.892l10.4-10.4-9.245-9.245a2.045,2.045,0,0,1,2.892-2.892L59.219,92.222a2.045,2.045,0,0,1,0,2.892Z" transform="translate(190 -68.7)" fill="#262626"/>
      <path id="Path_1-4" data-name="Path 1" d="M59.942,68.7H9.882A9.894,9.894,0,0,0,0,78.583V109.9a9.894,9.894,0,0,0,9.882,9.883h50.06a9.894,9.894,0,0,0,9.882-9.883V78.583A9.894,9.894,0,0,0,59.942,68.7ZM25.34,84.423l-10.4,10.4,9.245,9.245a2.045,2.045,0,0,1-2.892,2.892L10.6,96.264a2.045,2.045,0,0,1,0-2.893L22.446,81.53a2.046,2.046,0,1,1,2.894,2.892ZM42.213,79.61,31.4,110.238a2.046,2.046,0,0,1-3.858-1.362L38.355,78.248a2.046,2.046,0,0,1,3.858,1.362Zm17.006,15.5L47.378,106.956a2.046,2.046,0,0,1-2.894-2.892l10.4-10.4-9.245-9.245a2.045,2.045,0,0,1,2.892-2.892L59.219,92.222a2.045,2.045,0,0,1,0,2.892Z" transform="translate(285 -68.7)" fill="#262626"/>
      <path id="Path_1-5" data-name="Path 1" d="M59.942,68.7H9.882A9.894,9.894,0,0,0,0,78.583V109.9a9.894,9.894,0,0,0,9.882,9.883h50.06a9.894,9.894,0,0,0,9.882-9.883V78.583A9.894,9.894,0,0,0,59.942,68.7ZM25.34,84.423l-10.4,10.4,9.245,9.245a2.045,2.045,0,0,1-2.892,2.892L10.6,96.264a2.045,2.045,0,0,1,0-2.893L22.446,81.53a2.046,2.046,0,1,1,2.894,2.892ZM42.213,79.61,31.4,110.238a2.046,2.046,0,0,1-3.858-1.362L38.355,78.248a2.046,2.046,0,0,1,3.858,1.362Zm17.006,15.5L47.378,106.956a2.046,2.046,0,0,1-2.894-2.892l10.4-10.4-9.245-9.245a2.045,2.045,0,0,1,2.892-2.892L59.219,92.222a2.045,2.045,0,0,1,0,2.892Z" transform="translate(380 -68.7)" fill="#262626"/>
      <path id="Path_1-6" data-name="Path 1" d="M59.942,68.7H9.882A9.894,9.894,0,0,0,0,78.583V109.9a9.894,9.894,0,0,0,9.882,9.883h50.06a9.894,9.894,0,0,0,9.882-9.883V78.583A9.894,9.894,0,0,0,59.942,68.7ZM25.34,84.423l-10.4,10.4,9.245,9.245a2.045,2.045,0,0,1-2.892,2.892L10.6,96.264a2.045,2.045,0,0,1,0-2.893L22.446,81.53a2.046,2.046,0,1,1,2.894,2.892ZM42.213,79.61,31.4,110.238a2.046,2.046,0,0,1-3.858-1.362L38.355,78.248a2.046,2.046,0,0,1,3.858,1.362Zm17.006,15.5L47.378,106.956a2.046,2.046,0,0,1-2.894-2.892l10.4-10.4-9.245-9.245a2.045,2.045,0,0,1,2.892-2.892L59.219,92.222a2.045,2.045,0,0,1,0,2.892Z" transform="translate(475 -68.7)" fill="#262626"/>
      <path id="Path_1-7" data-name="Path 1" d="M59.942,68.7H9.882A9.894,9.894,0,0,0,0,78.583V109.9a9.894,9.894,0,0,0,9.882,9.883h50.06a9.894,9.894,0,0,0,9.882-9.883V78.583A9.894,9.894,0,0,0,59.942,68.7ZM25.34,84.423l-10.4,10.4,9.245,9.245a2.045,2.045,0,0,1-2.892,2.892L10.6,96.264a2.045,2.045,0,0,1,0-2.893L22.446,81.53a2.046,2.046,0,1,1,2.894,2.892ZM42.213,79.61,31.4,110.238a2.046,2.046,0,0,1-3.858-1.362L38.355,78.248a2.046,2.046,0,0,1,3.858,1.362Zm17.006,15.5L47.378,106.956a2.046,2.046,0,0,1-2.894-2.892l10.4-10.4-9.245-9.245a2.045,2.045,0,0,1,2.892-2.892L59.219,92.222a2.045,2.045,0,0,1,0,2.892Z" transform="translate(570 -68.7)" fill="#262626"/>
      <path id="Path_1-8" data-name="Path 1" d="M59.942,68.7H9.882A9.894,9.894,0,0,0,0,78.583V109.9a9.894,9.894,0,0,0,9.882,9.883h50.06a9.894,9.894,0,0,0,9.882-9.883V78.583A9.894,9.894,0,0,0,59.942,68.7ZM25.34,84.423l-10.4,10.4,9.245,9.245a2.045,2.045,0,0,1-2.892,2.892L10.6,96.264a2.045,2.045,0,0,1,0-2.893L22.446,81.53a2.046,2.046,0,1,1,2.894,2.892ZM42.213,79.61,31.4,110.238a2.046,2.046,0,0,1-3.858-1.362L38.355,78.248a2.046,2.046,0,0,1,3.858,1.362Zm17.006,15.5L47.378,106.956a2.046,2.046,0,0,1-2.894-2.892l10.4-10.4-9.245-9.245a2.045,2.045,0,0,1,2.892-2.892L59.219,92.222a2.045,2.045,0,0,1,0,2.892Z" transform="translate(665 -68.7)" fill="#262626"/>
      <path id="Path_1-9" data-name="Path 1" d="M59.942,68.7H9.882A9.894,9.894,0,0,0,0,78.583V109.9a9.894,9.894,0,0,0,9.882,9.883h50.06a9.894,9.894,0,0,0,9.882-9.883V78.583A9.894,9.894,0,0,0,59.942,68.7ZM25.34,84.423l-10.4,10.4,9.245,9.245a2.045,2.045,0,0,1-2.892,2.892L10.6,96.264a2.045,2.045,0,0,1,0-2.893L22.446,81.53a2.046,2.046,0,1,1,2.894,2.892ZM42.213,79.61,31.4,110.238a2.046,2.046,0,0,1-3.858-1.362L38.355,78.248a2.046,2.046,0,0,1,3.858,1.362Zm17.006,15.5L47.378,106.956a2.046,2.046,0,0,1-2.894-2.892l10.4-10.4-9.245-9.245a2.045,2.045,0,0,1,2.892-2.892L59.219,92.222a2.045,2.045,0,0,1,0,2.892Z" transform="translate(760 -68.7)" fill="#262626"/>
      <path id="Path_1-10" data-name="Path 1" d="M59.942,68.7H9.882A9.894,9.894,0,0,0,0,78.583V109.9a9.894,9.894,0,0,0,9.882,9.883h50.06a9.894,9.894,0,0,0,9.882-9.883V78.583A9.894,9.894,0,0,0,59.942,68.7ZM25.34,84.423l-10.4,10.4,9.245,9.245a2.045,2.045,0,0,1-2.892,2.892L10.6,96.264a2.045,2.045,0,0,1,0-2.893L22.446,81.53a2.046,2.046,0,1,1,2.894,2.892ZM42.213,79.61,31.4,110.238a2.046,2.046,0,0,1-3.858-1.362L38.355,78.248a2.046,2.046,0,0,1,3.858,1.362Zm17.006,15.5L47.378,106.956a2.046,2.046,0,0,1-2.894-2.892l10.4-10.4-9.245-9.245a2.045,2.045,0,0,1,2.892-2.892L59.219,92.222a2.045,2.045,0,0,1,0,2.892Z" transform="translate(855 -68.7)" fill="#262626"/>
      <path id="Path_1-11" data-name="Path 1" d="M59.942,68.7H9.882A9.894,9.894,0,0,0,0,78.583V109.9a9.894,9.894,0,0,0,9.882,9.883h50.06a9.894,9.894,0,0,0,9.882-9.883V78.583A9.894,9.894,0,0,0,59.942,68.7ZM25.34,84.423l-10.4,10.4,9.245,9.245a2.045,2.045,0,0,1-2.892,2.892L10.6,96.264a2.045,2.045,0,0,1,0-2.893L22.446,81.53a2.046,2.046,0,1,1,2.894,2.892ZM42.213,79.61,31.4,110.238a2.046,2.046,0,0,1-3.858-1.362L38.355,78.248a2.046,2.046,0,0,1,3.858,1.362Zm17.006,15.5L47.378,106.956a2.046,2.046,0,0,1-2.894-2.892l10.4-10.4-9.245-9.245a2.045,2.045,0,0,1,2.892-2.892L59.219,92.222a2.045,2.045,0,0,1,0,2.892Z" transform="translate(950 -68.7)" fill="#262626"/>
      <path id="Path_1-12" data-name="Path 1" d="M59.942,68.7H9.882A9.894,9.894,0,0,0,0,78.583V109.9a9.894,9.894,0,0,0,9.882,9.883h50.06a9.894,9.894,0,0,0,9.882-9.883V78.583A9.894,9.894,0,0,0,59.942,68.7ZM25.34,84.423l-10.4,10.4,9.245,9.245a2.045,2.045,0,0,1-2.892,2.892L10.6,96.264a2.045,2.045,0,0,1,0-2.893L22.446,81.53a2.046,2.046,0,1,1,2.894,2.892ZM42.213,79.61,31.4,110.238a2.046,2.046,0,0,1-3.858-1.362L38.355,78.248a2.046,2.046,0,0,1,3.858,1.362Zm17.006,15.5L47.378,106.956a2.046,2.046,0,0,1-2.894-2.892l10.4-10.4-9.245-9.245a2.045,2.045,0,0,1,2.892-2.892L59.219,92.222a2.045,2.045,0,0,1,0,2.892Z" transform="translate(1045 -68.7)" fill="#262626"/>
      <path id="Path_1-13" data-name="Path 1" d="M59.942,68.7H9.882A9.894,9.894,0,0,0,0,78.583V109.9a9.894,9.894,0,0,0,9.882,9.883h50.06a9.894,9.894,0,0,0,9.882-9.883V78.583A9.894,9.894,0,0,0,59.942,68.7ZM25.34,84.423l-10.4,10.4,9.245,9.245a2.045,2.045,0,0,1-2.892,2.892L10.6,96.264a2.045,2.045,0,0,1,0-2.893L22.446,81.53a2.046,2.046,0,1,1,2.894,2.892ZM42.213,79.61,31.4,110.238a2.046,2.046,0,0,1-3.858-1.362L38.355,78.248a2.046,2.046,0,0,1,3.858,1.362Zm17.006,15.5L47.378,106.956a2.046,2.046,0,0,1-2.894-2.892l10.4-10.4-9.245-9.245a2.045,2.045,0,0,1,2.892-2.892L59.219,92.222a2.045,2.045,0,0,1,0,2.892Z" transform="translate(1140 -68.7)" fill="#262626"/>
      <path id="Path_1-14" data-name="Path 1" d="M59.942,68.7H9.882A9.894,9.894,0,0,0,0,78.583V109.9a9.894,9.894,0,0,0,9.882,9.883h50.06a9.894,9.894,0,0,0,9.882-9.883V78.583A9.894,9.894,0,0,0,59.942,68.7ZM25.34,84.423l-10.4,10.4,9.245,9.245a2.045,2.045,0,0,1-2.892,2.892L10.6,96.264a2.045,2.045,0,0,1,0-2.893L22.446,81.53a2.046,2.046,0,1,1,2.894,2.892ZM42.213,79.61,31.4,110.238a2.046,2.046,0,0,1-3.858-1.362L38.355,78.248a2.046,2.046,0,0,1,3.858,1.362Zm17.006,15.5L47.378,106.956a2.046,2.046,0,0,1-2.894-2.892l10.4-10.4-9.245-9.245a2.045,2.045,0,0,1,2.892-2.892L59.219,92.222a2.045,2.045,0,0,1,0,2.892Z" transform="translate(1235 -68.7)" fill="#262626"/>
      <path id="Path_1-15" data-name="Path 1" d="M59.942,68.7H9.882A9.894,9.894,0,0,0,0,78.583V109.9a9.894,9.894,0,0,0,9.882,9.883h50.06a9.894,9.894,0,0,0,9.882-9.883V78.583A9.894,9.894,0,0,0,59.942,68.7ZM25.34,84.423l-10.4,10.4,9.245,9.245a2.045,2.045,0,0,1-2.892,2.892L10.6,96.264a2.045,2.045,0,0,1,0-2.893L22.446,81.53a2.046,2.046,0,1,1,2.894,2.892ZM42.213,79.61,31.4,110.238a2.046,2.046,0,0,1-3.858-1.362L38.355,78.248a2.046,2.046,0,0,1,3.858,1.362Zm17.006,15.5L47.378,106.956a2.046,2.046,0,0,1-2.894-2.892l10.4-10.4-9.245-9.245a2.045,2.045,0,0,1,2.892-2.892L59.219,92.222a2.045,2.045,0,0,1,0,2.892Z" transform="translate(1330 -68.7)" fill="#262626"/>
      <path id="Path_1-16" data-name="Path 1" d="M59.942,68.7H9.882A9.894,9.894,0,0,0,0,78.583V109.9a9.894,9.894,0,0,0,9.882,9.883h50.06a9.894,9.894,0,0,0,9.882-9.883V78.583A9.894,9.894,0,0,0,59.942,68.7ZM25.34,84.423l-10.4,10.4,9.245,9.245a2.045,2.045,0,0,1-2.892,2.892L10.6,96.264a2.045,2.045,0,0,1,0-2.893L22.446,81.53a2.046,2.046,0,1,1,2.894,2.892ZM42.213,79.61,31.4,110.238a2.046,2.046,0,0,1-3.858-1.362L38.355,78.248a2.046,2.046,0,0,1,3.858,1.362Zm17.006,15.5L47.378,106.956a2.046,2.046,0,0,1-2.894-2.892l10.4-10.4-9.245-9.245a2.045,2.045,0,0,1,2.892-2.892L59.219,92.222a2.045,2.045,0,0,1,0,2.892Z" transform="translate(1425 -68.7)" fill="#262626"/>
      <path id="Path_1-17" data-name="Path 1" d="M59.942,68.7H9.882A9.894,9.894,0,0,0,0,78.583V109.9a9.894,9.894,0,0,0,9.882,9.883h50.06a9.894,9.894,0,0,0,9.882-9.883V78.583A9.894,9.894,0,0,0,59.942,68.7ZM25.34,84.423l-10.4,10.4,9.245,9.245a2.045,2.045,0,0,1-2.892,2.892L10.6,96.264a2.045,2.045,0,0,1,0-2.893L22.446,81.53a2.046,2.046,0,1,1,2.894,2.892ZM42.213,79.61,31.4,110.238a2.046,2.046,0,0,1-3.858-1.362L38.355,78.248a2.046,2.046,0,0,1,3.858,1.362Zm17.006,15.5L47.378,106.956a2.046,2.046,0,0,1-2.894-2.892l10.4-10.4-9.245-9.245a2.045,2.045,0,0,1,2.892-2.892L59.219,92.222a2.045,2.045,0,0,1,0,2.892Z" transform="translate(0 8.3)" fill="#262626"/>
      <path id="Path_1-18" data-name="Path 1" d="M59.942,68.7H9.882A9.894,9.894,0,0,0,0,78.583V109.9a9.894,9.894,0,0,0,9.882,9.883h50.06a9.894,9.894,0,0,0,9.882-9.883V78.583A9.894,9.894,0,0,0,59.942,68.7ZM25.34,84.423l-10.4,10.4,9.245,9.245a2.045,2.045,0,0,1-2.892,2.892L10.6,96.264a2.045,2.045,0,0,1,0-2.893L22.446,81.53a2.046,2.046,0,1,1,2.894,2.892ZM42.213,79.61,31.4,110.238a2.046,2.046,0,0,1-3.858-1.362L38.355,78.248a2.046,2.046,0,0,1,3.858,1.362Zm17.006,15.5L47.378,106.956a2.046,2.046,0,0,1-2.894-2.892l10.4-10.4-9.245-9.245a2.045,2.045,0,0,1,2.892-2.892L59.219,92.222a2.045,2.045,0,0,1,0,2.892Z" transform="translate(95 8.3)" fill="#262626"/>
      <path id="Path_1-19" data-name="Path 1" d="M59.942,68.7H9.882A9.894,9.894,0,0,0,0,78.583V109.9a9.894,9.894,0,0,0,9.882,9.883h50.06a9.894,9.894,0,0,0,9.882-9.883V78.583A9.894,9.894,0,0,0,59.942,68.7ZM25.34,84.423l-10.4,10.4,9.245,9.245a2.045,2.045,0,0,1-2.892,2.892L10.6,96.264a2.045,2.045,0,0,1,0-2.893L22.446,81.53a2.046,2.046,0,1,1,2.894,2.892ZM42.213,79.61,31.4,110.238a2.046,2.046,0,0,1-3.858-1.362L38.355,78.248a2.046,2.046,0,0,1,3.858,1.362Zm17.006,15.5L47.378,106.956a2.046,2.046,0,0,1-2.894-2.892l10.4-10.4-9.245-9.245a2.045,2.045,0,0,1,2.892-2.892L59.219,92.222a2.045,2.045,0,0,1,0,2.892Z" transform="translate(190 8.3)" fill="#262626"/>
      <path id="Path_1-20" data-name="Path 1" d="M59.942,68.7H9.882A9.894,9.894,0,0,0,0,78.583V109.9a9.894,9.894,0,0,0,9.882,9.883h50.06a9.894,9.894,0,0,0,9.882-9.883V78.583A9.894,9.894,0,0,0,59.942,68.7ZM25.34,84.423l-10.4,10.4,9.245,9.245a2.045,2.045,0,0,1-2.892,2.892L10.6,96.264a2.045,2.045,0,0,1,0-2.893L22.446,81.53a2.046,2.046,0,1,1,2.894,2.892ZM42.213,79.61,31.4,110.238a2.046,2.046,0,0,1-3.858-1.362L38.355,78.248a2.046,2.046,0,0,1,3.858,1.362Zm17.006,15.5L47.378,106.956a2.046,2.046,0,0,1-2.894-2.892l10.4-10.4-9.245-9.245a2.045,2.045,0,0,1,2.892-2.892L59.219,92.222a2.045,2.045,0,0,1,0,2.892Z" transform="translate(285 8.3)" fill="#262626"/>
      <path id="Path_1-21" data-name="Path 1" d="M59.942,68.7H9.882A9.894,9.894,0,0,0,0,78.583V109.9a9.894,9.894,0,0,0,9.882,9.883h50.06a9.894,9.894,0,0,0,9.882-9.883V78.583A9.894,9.894,0,0,0,59.942,68.7ZM25.34,84.423l-10.4,10.4,9.245,9.245a2.045,2.045,0,0,1-2.892,2.892L10.6,96.264a2.045,2.045,0,0,1,0-2.893L22.446,81.53a2.046,2.046,0,1,1,2.894,2.892ZM42.213,79.61,31.4,110.238a2.046,2.046,0,0,1-3.858-1.362L38.355,78.248a2.046,2.046,0,0,1,3.858,1.362Zm17.006,15.5L47.378,106.956a2.046,2.046,0,0,1-2.894-2.892l10.4-10.4-9.245-9.245a2.045,2.045,0,0,1,2.892-2.892L59.219,92.222a2.045,2.045,0,0,1,0,2.892Z" transform="translate(380 8.3)" fill="#262626"/>
      <path id="Path_1-22" data-name="Path 1" d="M59.942,68.7H9.882A9.894,9.894,0,0,0,0,78.583V109.9a9.894,9.894,0,0,0,9.882,9.883h50.06a9.894,9.894,0,0,0,9.882-9.883V78.583A9.894,9.894,0,0,0,59.942,68.7ZM25.34,84.423l-10.4,10.4,9.245,9.245a2.045,2.045,0,0,1-2.892,2.892L10.6,96.264a2.045,2.045,0,0,1,0-2.893L22.446,81.53a2.046,2.046,0,1,1,2.894,2.892ZM42.213,79.61,31.4,110.238a2.046,2.046,0,0,1-3.858-1.362L38.355,78.248a2.046,2.046,0,0,1,3.858,1.362Zm17.006,15.5L47.378,106.956a2.046,2.046,0,0,1-2.894-2.892l10.4-10.4-9.245-9.245a2.045,2.045,0,0,1,2.892-2.892L59.219,92.222a2.045,2.045,0,0,1,0,2.892Z" transform="translate(475 8.3)" fill="#262626"/>
      <path id="Path_1-23" data-name="Path 1" d="M59.942,68.7H9.882A9.894,9.894,0,0,0,0,78.583V109.9a9.894,9.894,0,0,0,9.882,9.883h50.06a9.894,9.894,0,0,0,9.882-9.883V78.583A9.894,9.894,0,0,0,59.942,68.7ZM25.34,84.423l-10.4,10.4,9.245,9.245a2.045,2.045,0,0,1-2.892,2.892L10.6,96.264a2.045,2.045,0,0,1,0-2.893L22.446,81.53a2.046,2.046,0,1,1,2.894,2.892ZM42.213,79.61,31.4,110.238a2.046,2.046,0,0,1-3.858-1.362L38.355,78.248a2.046,2.046,0,0,1,3.858,1.362Zm17.006,15.5L47.378,106.956a2.046,2.046,0,0,1-2.894-2.892l10.4-10.4-9.245-9.245a2.045,2.045,0,0,1,2.892-2.892L59.219,92.222a2.045,2.045,0,0,1,0,2.892Z" transform="translate(570 8.3)" fill="#262626"/>
      <path id="Path_1-24" data-name="Path 1" d="M59.942,68.7H9.882A9.894,9.894,0,0,0,0,78.583V109.9a9.894,9.894,0,0,0,9.882,9.883h50.06a9.894,9.894,0,0,0,9.882-9.883V78.583A9.894,9.894,0,0,0,59.942,68.7ZM25.34,84.423l-10.4,10.4,9.245,9.245a2.045,2.045,0,0,1-2.892,2.892L10.6,96.264a2.045,2.045,0,0,1,0-2.893L22.446,81.53a2.046,2.046,0,1,1,2.894,2.892ZM42.213,79.61,31.4,110.238a2.046,2.046,0,0,1-3.858-1.362L38.355,78.248a2.046,2.046,0,0,1,3.858,1.362Zm17.006,15.5L47.378,106.956a2.046,2.046,0,0,1-2.894-2.892l10.4-10.4-9.245-9.245a2.045,2.045,0,0,1,2.892-2.892L59.219,92.222a2.045,2.045,0,0,1,0,2.892Z" transform="translate(665 8.3)" fill="#262626"/>
      <path id="Path_1-25" data-name="Path 1" d="M59.942,68.7H9.882A9.894,9.894,0,0,0,0,78.583V109.9a9.894,9.894,0,0,0,9.882,9.883h50.06a9.894,9.894,0,0,0,9.882-9.883V78.583A9.894,9.894,0,0,0,59.942,68.7ZM25.34,84.423l-10.4,10.4,9.245,9.245a2.045,2.045,0,0,1-2.892,2.892L10.6,96.264a2.045,2.045,0,0,1,0-2.893L22.446,81.53a2.046,2.046,0,1,1,2.894,2.892ZM42.213,79.61,31.4,110.238a2.046,2.046,0,0,1-3.858-1.362L38.355,78.248a2.046,2.046,0,0,1,3.858,1.362Zm17.006,15.5L47.378,106.956a2.046,2.046,0,0,1-2.894-2.892l10.4-10.4-9.245-9.245a2.045,2.045,0,0,1,2.892-2.892L59.219,92.222a2.045,2.045,0,0,1,0,2.892Z" transform="translate(760 8.3)" fill="#262626"/>
      <path id="Path_1-26" data-name="Path 1" d="M59.942,68.7H9.882A9.894,9.894,0,0,0,0,78.583V109.9a9.894,9.894,0,0,0,9.882,9.883h50.06a9.894,9.894,0,0,0,9.882-9.883V78.583A9.894,9.894,0,0,0,59.942,68.7ZM25.34,84.423l-10.4,10.4,9.245,9.245a2.045,2.045,0,0,1-2.892,2.892L10.6,96.264a2.045,2.045,0,0,1,0-2.893L22.446,81.53a2.046,2.046,0,1,1,2.894,2.892ZM42.213,79.61,31.4,110.238a2.046,2.046,0,0,1-3.858-1.362L38.355,78.248a2.046,2.046,0,0,1,3.858,1.362Zm17.006,15.5L47.378,106.956a2.046,2.046,0,0,1-2.894-2.892l10.4-10.4-9.245-9.245a2.045,2.045,0,0,1,2.892-2.892L59.219,92.222a2.045,2.045,0,0,1,0,2.892Z" transform="translate(855 8.3)" fill="#262626"/>
      <path id="Path_1-27" data-name="Path 1" d="M59.942,68.7H9.882A9.894,9.894,0,0,0,0,78.583V109.9a9.894,9.894,0,0,0,9.882,9.883h50.06a9.894,9.894,0,0,0,9.882-9.883V78.583A9.894,9.894,0,0,0,59.942,68.7ZM25.34,84.423l-10.4,10.4,9.245,9.245a2.045,2.045,0,0,1-2.892,2.892L10.6,96.264a2.045,2.045,0,0,1,0-2.893L22.446,81.53a2.046,2.046,0,1,1,2.894,2.892ZM42.213,79.61,31.4,110.238a2.046,2.046,0,0,1-3.858-1.362L38.355,78.248a2.046,2.046,0,0,1,3.858,1.362Zm17.006,15.5L47.378,106.956a2.046,2.046,0,0,1-2.894-2.892l10.4-10.4-9.245-9.245a2.045,2.045,0,0,1,2.892-2.892L59.219,92.222a2.045,2.045,0,0,1,0,2.892Z" transform="translate(950 8.3)" fill="#262626"/>
      <path id="Path_1-28" data-name="Path 1" d="M59.942,68.7H9.882A9.894,9.894,0,0,0,0,78.583V109.9a9.894,9.894,0,0,0,9.882,9.883h50.06a9.894,9.894,0,0,0,9.882-9.883V78.583A9.894,9.894,0,0,0,59.942,68.7ZM25.34,84.423l-10.4,10.4,9.245,9.245a2.045,2.045,0,0,1-2.892,2.892L10.6,96.264a2.045,2.045,0,0,1,0-2.893L22.446,81.53a2.046,2.046,0,1,1,2.894,2.892ZM42.213,79.61,31.4,110.238a2.046,2.046,0,0,1-3.858-1.362L38.355,78.248a2.046,2.046,0,0,1,3.858,1.362Zm17.006,15.5L47.378,106.956a2.046,2.046,0,0,1-2.894-2.892l10.4-10.4-9.245-9.245a2.045,2.045,0,0,1,2.892-2.892L59.219,92.222a2.045,2.045,0,0,1,0,2.892Z" transform="translate(1045 8.3)" fill="#262626"/>
      <path id="Path_1-29" data-name="Path 1" d="M59.942,68.7H9.882A9.894,9.894,0,0,0,0,78.583V109.9a9.894,9.894,0,0,0,9.882,9.883h50.06a9.894,9.894,0,0,0,9.882-9.883V78.583A9.894,9.894,0,0,0,59.942,68.7ZM25.34,84.423l-10.4,10.4,9.245,9.245a2.045,2.045,0,0,1-2.892,2.892L10.6,96.264a2.045,2.045,0,0,1,0-2.893L22.446,81.53a2.046,2.046,0,1,1,2.894,2.892ZM42.213,79.61,31.4,110.238a2.046,2.046,0,0,1-3.858-1.362L38.355,78.248a2.046,2.046,0,0,1,3.858,1.362Zm17.006,15.5L47.378,106.956a2.046,2.046,0,0,1-2.894-2.892l10.4-10.4-9.245-9.245a2.045,2.045,0,0,1,2.892-2.892L59.219,92.222a2.045,2.045,0,0,1,0,2.892Z" transform="translate(1140 8.3)" fill="#262626"/>
      <path id="Path_1-30" data-name="Path 1" d="M59.942,68.7H9.882A9.894,9.894,0,0,0,0,78.583V109.9a9.894,9.894,0,0,0,9.882,9.883h50.06a9.894,9.894,0,0,0,9.882-9.883V78.583A9.894,9.894,0,0,0,59.942,68.7ZM25.34,84.423l-10.4,10.4,9.245,9.245a2.045,2.045,0,0,1-2.892,2.892L10.6,96.264a2.045,2.045,0,0,1,0-2.893L22.446,81.53a2.046,2.046,0,1,1,2.894,2.892ZM42.213,79.61,31.4,110.238a2.046,2.046,0,0,1-3.858-1.362L38.355,78.248a2.046,2.046,0,0,1,3.858,1.362Zm17.006,15.5L47.378,106.956a2.046,2.046,0,0,1-2.894-2.892l10.4-10.4-9.245-9.245a2.045,2.045,0,0,1,2.892-2.892L59.219,92.222a2.045,2.045,0,0,1,0,2.892Z" transform="translate(1235 8.3)" fill="#262626"/>
      <path id="Path_1-31" data-name="Path 1" d="M59.942,68.7H9.882A9.894,9.894,0,0,0,0,78.583V109.9a9.894,9.894,0,0,0,9.882,9.883h50.06a9.894,9.894,0,0,0,9.882-9.883V78.583A9.894,9.894,0,0,0,59.942,68.7ZM25.34,84.423l-10.4,10.4,9.245,9.245a2.045,2.045,0,0,1-2.892,2.892L10.6,96.264a2.045,2.045,0,0,1,0-2.893L22.446,81.53a2.046,2.046,0,1,1,2.894,2.892ZM42.213,79.61,31.4,110.238a2.046,2.046,0,0,1-3.858-1.362L38.355,78.248a2.046,2.046,0,0,1,3.858,1.362Zm17.006,15.5L47.378,106.956a2.046,2.046,0,0,1-2.894-2.892l10.4-10.4-9.245-9.245a2.045,2.045,0,0,1,2.892-2.892L59.219,92.222a2.045,2.045,0,0,1,0,2.892Z" transform="translate(1330 8.3)" fill="#262626"/>
      <path id="Path_1-32" data-name="Path 1" d="M59.942,68.7H9.882A9.894,9.894,0,0,0,0,78.583V109.9a9.894,9.894,0,0,0,9.882,9.883h50.06a9.894,9.894,0,0,0,9.882-9.883V78.583A9.894,9.894,0,0,0,59.942,68.7ZM25.34,84.423l-10.4,10.4,9.245,9.245a2.045,2.045,0,0,1-2.892,2.892L10.6,96.264a2.045,2.045,0,0,1,0-2.893L22.446,81.53a2.046,2.046,0,1,1,2.894,2.892ZM42.213,79.61,31.4,110.238a2.046,2.046,0,0,1-3.858-1.362L38.355,78.248a2.046,2.046,0,0,1,3.858,1.362Zm17.006,15.5L47.378,106.956a2.046,2.046,0,0,1-2.894-2.892l10.4-10.4-9.245-9.245a2.045,2.045,0,0,1,2.892-2.892L59.219,92.222a2.045,2.045,0,0,1,0,2.892Z" transform="translate(1425 8.3)" fill="#262626"/>
      <path id="Path_1-33" data-name="Path 1" d="M59.942,68.7H9.882A9.894,9.894,0,0,0,0,78.583V109.9a9.894,9.894,0,0,0,9.882,9.883h50.06a9.894,9.894,0,0,0,9.882-9.883V78.583A9.894,9.894,0,0,0,59.942,68.7ZM25.34,84.423l-10.4,10.4,9.245,9.245a2.045,2.045,0,0,1-2.892,2.892L10.6,96.264a2.045,2.045,0,0,1,0-2.893L22.446,81.53a2.046,2.046,0,1,1,2.894,2.892ZM42.213,79.61,31.4,110.238a2.046,2.046,0,0,1-3.858-1.362L38.355,78.248a2.046,2.046,0,0,1,3.858,1.362Zm17.006,15.5L47.378,106.956a2.046,2.046,0,0,1-2.894-2.892l10.4-10.4-9.245-9.245a2.045,2.045,0,0,1,2.892-2.892L59.219,92.222a2.045,2.045,0,0,1,0,2.892Z" transform="translate(0 85.3)" fill="#262626"/>
      <path id="Path_1-34" data-name="Path 1" d="M59.942,68.7H9.882A9.894,9.894,0,0,0,0,78.583V109.9a9.894,9.894,0,0,0,9.882,9.883h50.06a9.894,9.894,0,0,0,9.882-9.883V78.583A9.894,9.894,0,0,0,59.942,68.7ZM25.34,84.423l-10.4,10.4,9.245,9.245a2.045,2.045,0,0,1-2.892,2.892L10.6,96.264a2.045,2.045,0,0,1,0-2.893L22.446,81.53a2.046,2.046,0,1,1,2.894,2.892ZM42.213,79.61,31.4,110.238a2.046,2.046,0,0,1-3.858-1.362L38.355,78.248a2.046,2.046,0,0,1,3.858,1.362Zm17.006,15.5L47.378,106.956a2.046,2.046,0,0,1-2.894-2.892l10.4-10.4-9.245-9.245a2.045,2.045,0,0,1,2.892-2.892L59.219,92.222a2.045,2.045,0,0,1,0,2.892Z" transform="translate(95 85.3)" fill="#262626"/>
      <path id="Path_1-35" data-name="Path 1" d="M59.942,68.7H9.882A9.894,9.894,0,0,0,0,78.583V109.9a9.894,9.894,0,0,0,9.882,9.883h50.06a9.894,9.894,0,0,0,9.882-9.883V78.583A9.894,9.894,0,0,0,59.942,68.7ZM25.34,84.423l-10.4,10.4,9.245,9.245a2.045,2.045,0,0,1-2.892,2.892L10.6,96.264a2.045,2.045,0,0,1,0-2.893L22.446,81.53a2.046,2.046,0,1,1,2.894,2.892ZM42.213,79.61,31.4,110.238a2.046,2.046,0,0,1-3.858-1.362L38.355,78.248a2.046,2.046,0,0,1,3.858,1.362Zm17.006,15.5L47.378,106.956a2.046,2.046,0,0,1-2.894-2.892l10.4-10.4-9.245-9.245a2.045,2.045,0,0,1,2.892-2.892L59.219,92.222a2.045,2.045,0,0,1,0,2.892Z" transform="translate(190 85.3)" fill="#262626"/>
      <path id="Path_1-36" data-name="Path 1" d="M59.942,68.7H9.882A9.894,9.894,0,0,0,0,78.583V109.9a9.894,9.894,0,0,0,9.882,9.883h50.06a9.894,9.894,0,0,0,9.882-9.883V78.583A9.894,9.894,0,0,0,59.942,68.7ZM25.34,84.423l-10.4,10.4,9.245,9.245a2.045,2.045,0,0,1-2.892,2.892L10.6,96.264a2.045,2.045,0,0,1,0-2.893L22.446,81.53a2.046,2.046,0,1,1,2.894,2.892ZM42.213,79.61,31.4,110.238a2.046,2.046,0,0,1-3.858-1.362L38.355,78.248a2.046,2.046,0,0,1,3.858,1.362Zm17.006,15.5L47.378,106.956a2.046,2.046,0,0,1-2.894-2.892l10.4-10.4-9.245-9.245a2.045,2.045,0,0,1,2.892-2.892L59.219,92.222a2.045,2.045,0,0,1,0,2.892Z" transform="translate(285 85.3)" fill="#262626"/>
      <path id="Path_1-37" data-name="Path 1" d="M59.942,68.7H9.882A9.894,9.894,0,0,0,0,78.583V109.9a9.894,9.894,0,0,0,9.882,9.883h50.06a9.894,9.894,0,0,0,9.882-9.883V78.583A9.894,9.894,0,0,0,59.942,68.7ZM25.34,84.423l-10.4,10.4,9.245,9.245a2.045,2.045,0,0,1-2.892,2.892L10.6,96.264a2.045,2.045,0,0,1,0-2.893L22.446,81.53a2.046,2.046,0,1,1,2.894,2.892ZM42.213,79.61,31.4,110.238a2.046,2.046,0,0,1-3.858-1.362L38.355,78.248a2.046,2.046,0,0,1,3.858,1.362Zm17.006,15.5L47.378,106.956a2.046,2.046,0,0,1-2.894-2.892l10.4-10.4-9.245-9.245a2.045,2.045,0,0,1,2.892-2.892L59.219,92.222a2.045,2.045,0,0,1,0,2.892Z" transform="translate(380 85.3)" fill="#262626"/>
      <path id="Path_1-38" data-name="Path 1" d="M59.942,68.7H9.882A9.894,9.894,0,0,0,0,78.583V109.9a9.894,9.894,0,0,0,9.882,9.883h50.06a9.894,9.894,0,0,0,9.882-9.883V78.583A9.894,9.894,0,0,0,59.942,68.7ZM25.34,84.423l-10.4,10.4,9.245,9.245a2.045,2.045,0,0,1-2.892,2.892L10.6,96.264a2.045,2.045,0,0,1,0-2.893L22.446,81.53a2.046,2.046,0,1,1,2.894,2.892ZM42.213,79.61,31.4,110.238a2.046,2.046,0,0,1-3.858-1.362L38.355,78.248a2.046,2.046,0,0,1,3.858,1.362Zm17.006,15.5L47.378,106.956a2.046,2.046,0,0,1-2.894-2.892l10.4-10.4-9.245-9.245a2.045,2.045,0,0,1,2.892-2.892L59.219,92.222a2.045,2.045,0,0,1,0,2.892Z" transform="translate(475 85.3)" fill="#262626"/>
      <path id="Path_1-39" data-name="Path 1" d="M59.942,68.7H9.882A9.894,9.894,0,0,0,0,78.583V109.9a9.894,9.894,0,0,0,9.882,9.883h50.06a9.894,9.894,0,0,0,9.882-9.883V78.583A9.894,9.894,0,0,0,59.942,68.7ZM25.34,84.423l-10.4,10.4,9.245,9.245a2.045,2.045,0,0,1-2.892,2.892L10.6,96.264a2.045,2.045,0,0,1,0-2.893L22.446,81.53a2.046,2.046,0,1,1,2.894,2.892ZM42.213,79.61,31.4,110.238a2.046,2.046,0,0,1-3.858-1.362L38.355,78.248a2.046,2.046,0,0,1,3.858,1.362Zm17.006,15.5L47.378,106.956a2.046,2.046,0,0,1-2.894-2.892l10.4-10.4-9.245-9.245a2.045,2.045,0,0,1,2.892-2.892L59.219,92.222a2.045,2.045,0,0,1,0,2.892Z" transform="translate(570 85.3)" fill="#262626"/>
      <path id="Path_1-40" data-name="Path 1" d="M59.942,68.7H9.882A9.894,9.894,0,0,0,0,78.583V109.9a9.894,9.894,0,0,0,9.882,9.883h50.06a9.894,9.894,0,0,0,9.882-9.883V78.583A9.894,9.894,0,0,0,59.942,68.7ZM25.34,84.423l-10.4,10.4,9.245,9.245a2.045,2.045,0,0,1-2.892,2.892L10.6,96.264a2.045,2.045,0,0,1,0-2.893L22.446,81.53a2.046,2.046,0,1,1,2.894,2.892ZM42.213,79.61,31.4,110.238a2.046,2.046,0,0,1-3.858-1.362L38.355,78.248a2.046,2.046,0,0,1,3.858,1.362Zm17.006,15.5L47.378,106.956a2.046,2.046,0,0,1-2.894-2.892l10.4-10.4-9.245-9.245a2.045,2.045,0,0,1,2.892-2.892L59.219,92.222a2.045,2.045,0,0,1,0,2.892Z" transform="translate(665 85.3)" fill="#262626"/>
      <path id="Path_1-41" data-name="Path 1" d="M59.942,68.7H9.882A9.894,9.894,0,0,0,0,78.583V109.9a9.894,9.894,0,0,0,9.882,9.883h50.06a9.894,9.894,0,0,0,9.882-9.883V78.583A9.894,9.894,0,0,0,59.942,68.7ZM25.34,84.423l-10.4,10.4,9.245,9.245a2.045,2.045,0,0,1-2.892,2.892L10.6,96.264a2.045,2.045,0,0,1,0-2.893L22.446,81.53a2.046,2.046,0,1,1,2.894,2.892ZM42.213,79.61,31.4,110.238a2.046,2.046,0,0,1-3.858-1.362L38.355,78.248a2.046,2.046,0,0,1,3.858,1.362Zm17.006,15.5L47.378,106.956a2.046,2.046,0,0,1-2.894-2.892l10.4-10.4-9.245-9.245a2.045,2.045,0,0,1,2.892-2.892L59.219,92.222a2.045,2.045,0,0,1,0,2.892Z" transform="translate(760 85.3)" fill="#262626"/>
      <path id="Path_1-42" data-name="Path 1" d="M59.942,68.7H9.882A9.894,9.894,0,0,0,0,78.583V109.9a9.894,9.894,0,0,0,9.882,9.883h50.06a9.894,9.894,0,0,0,9.882-9.883V78.583A9.894,9.894,0,0,0,59.942,68.7ZM25.34,84.423l-10.4,10.4,9.245,9.245a2.045,2.045,0,0,1-2.892,2.892L10.6,96.264a2.045,2.045,0,0,1,0-2.893L22.446,81.53a2.046,2.046,0,1,1,2.894,2.892ZM42.213,79.61,31.4,110.238a2.046,2.046,0,0,1-3.858-1.362L38.355,78.248a2.046,2.046,0,0,1,3.858,1.362Zm17.006,15.5L47.378,106.956a2.046,2.046,0,0,1-2.894-2.892l10.4-10.4-9.245-9.245a2.045,2.045,0,0,1,2.892-2.892L59.219,92.222a2.045,2.045,0,0,1,0,2.892Z" transform="translate(855 85.3)" fill="#262626"/>
      <path id="Path_1-43" data-name="Path 1" d="M59.942,68.7H9.882A9.894,9.894,0,0,0,0,78.583V109.9a9.894,9.894,0,0,0,9.882,9.883h50.06a9.894,9.894,0,0,0,9.882-9.883V78.583A9.894,9.894,0,0,0,59.942,68.7ZM25.34,84.423l-10.4,10.4,9.245,9.245a2.045,2.045,0,0,1-2.892,2.892L10.6,96.264a2.045,2.045,0,0,1,0-2.893L22.446,81.53a2.046,2.046,0,1,1,2.894,2.892ZM42.213,79.61,31.4,110.238a2.046,2.046,0,0,1-3.858-1.362L38.355,78.248a2.046,2.046,0,0,1,3.858,1.362Zm17.006,15.5L47.378,106.956a2.046,2.046,0,0,1-2.894-2.892l10.4-10.4-9.245-9.245a2.045,2.045,0,0,1,2.892-2.892L59.219,92.222a2.045,2.045,0,0,1,0,2.892Z" transform="translate(950 85.3)" fill="#262626"/>
      <path id="Path_1-44" data-name="Path 1" d="M59.942,68.7H9.882A9.894,9.894,0,0,0,0,78.583V109.9a9.894,9.894,0,0,0,9.882,9.883h50.06a9.894,9.894,0,0,0,9.882-9.883V78.583A9.894,9.894,0,0,0,59.942,68.7ZM25.34,84.423l-10.4,10.4,9.245,9.245a2.045,2.045,0,0,1-2.892,2.892L10.6,96.264a2.045,2.045,0,0,1,0-2.893L22.446,81.53a2.046,2.046,0,1,1,2.894,2.892ZM42.213,79.61,31.4,110.238a2.046,2.046,0,0,1-3.858-1.362L38.355,78.248a2.046,2.046,0,0,1,3.858,1.362Zm17.006,15.5L47.378,106.956a2.046,2.046,0,0,1-2.894-2.892l10.4-10.4-9.245-9.245a2.045,2.045,0,0,1,2.892-2.892L59.219,92.222a2.045,2.045,0,0,1,0,2.892Z" transform="translate(1045 85.3)" fill="#262626"/>
      <path id="Path_1-45" data-name="Path 1" d="M59.942,68.7H9.882A9.894,9.894,0,0,0,0,78.583V109.9a9.894,9.894,0,0,0,9.882,9.883h50.06a9.894,9.894,0,0,0,9.882-9.883V78.583A9.894,9.894,0,0,0,59.942,68.7ZM25.34,84.423l-10.4,10.4,9.245,9.245a2.045,2.045,0,0,1-2.892,2.892L10.6,96.264a2.045,2.045,0,0,1,0-2.893L22.446,81.53a2.046,2.046,0,1,1,2.894,2.892ZM42.213,79.61,31.4,110.238a2.046,2.046,0,0,1-3.858-1.362L38.355,78.248a2.046,2.046,0,0,1,3.858,1.362Zm17.006,15.5L47.378,106.956a2.046,2.046,0,0,1-2.894-2.892l10.4-10.4-9.245-9.245a2.045,2.045,0,0,1,2.892-2.892L59.219,92.222a2.045,2.045,0,0,1,0,2.892Z" transform="translate(1140 85.3)" fill="#262626"/>
      <path id="Path_1-46" data-name="Path 1" d="M59.942,68.7H9.882A9.894,9.894,0,0,0,0,78.583V109.9a9.894,9.894,0,0,0,9.882,9.883h50.06a9.894,9.894,0,0,0,9.882-9.883V78.583A9.894,9.894,0,0,0,59.942,68.7ZM25.34,84.423l-10.4,10.4,9.245,9.245a2.045,2.045,0,0,1-2.892,2.892L10.6,96.264a2.045,2.045,0,0,1,0-2.893L22.446,81.53a2.046,2.046,0,1,1,2.894,2.892ZM42.213,79.61,31.4,110.238a2.046,2.046,0,0,1-3.858-1.362L38.355,78.248a2.046,2.046,0,0,1,3.858,1.362Zm17.006,15.5L47.378,106.956a2.046,2.046,0,0,1-2.894-2.892l10.4-10.4-9.245-9.245a2.045,2.045,0,0,1,2.892-2.892L59.219,92.222a2.045,2.045,0,0,1,0,2.892Z" transform="translate(1235 85.3)" fill="#262626"/>
      <path id="Path_1-47" data-name="Path 1" d="M59.942,68.7H9.882A9.894,9.894,0,0,0,0,78.583V109.9a9.894,9.894,0,0,0,9.882,9.883h50.06a9.894,9.894,0,0,0,9.882-9.883V78.583A9.894,9.894,0,0,0,59.942,68.7ZM25.34,84.423l-10.4,10.4,9.245,9.245a2.045,2.045,0,0,1-2.892,2.892L10.6,96.264a2.045,2.045,0,0,1,0-2.893L22.446,81.53a2.046,2.046,0,1,1,2.894,2.892ZM42.213,79.61,31.4,110.238a2.046,2.046,0,0,1-3.858-1.362L38.355,78.248a2.046,2.046,0,0,1,3.858,1.362Zm17.006,15.5L47.378,106.956a2.046,2.046,0,0,1-2.894-2.892l10.4-10.4-9.245-9.245a2.045,2.045,0,0,1,2.892-2.892L59.219,92.222a2.045,2.045,0,0,1,0,2.892Z" transform="translate(1330 85.3)" fill="#262626"/>
      <path id="Path_1-48" data-name="Path 1" d="M59.942,68.7H9.882A9.894,9.894,0,0,0,0,78.583V109.9a9.894,9.894,0,0,0,9.882,9.883h50.06a9.894,9.894,0,0,0,9.882-9.883V78.583A9.894,9.894,0,0,0,59.942,68.7ZM25.34,84.423l-10.4,10.4,9.245,9.245a2.045,2.045,0,0,1-2.892,2.892L10.6,96.264a2.045,2.045,0,0,1,0-2.893L22.446,81.53a2.046,2.046,0,1,1,2.894,2.892ZM42.213,79.61,31.4,110.238a2.046,2.046,0,0,1-3.858-1.362L38.355,78.248a2.046,2.046,0,0,1,3.858,1.362Zm17.006,15.5L47.378,106.956a2.046,2.046,0,0,1-2.894-2.892l10.4-10.4-9.245-9.245a2.045,2.045,0,0,1,2.892-2.892L59.219,92.222a2.045,2.045,0,0,1,0,2.892Z" transform="translate(1425 85.3)" fill="#262626"/>
      <path id="Path_1-49" data-name="Path 1" d="M59.942,68.7H9.882A9.894,9.894,0,0,0,0,78.583V109.9a9.894,9.894,0,0,0,9.882,9.883h50.06a9.894,9.894,0,0,0,9.882-9.883V78.583A9.894,9.894,0,0,0,59.942,68.7ZM25.34,84.423l-10.4,10.4,9.245,9.245a2.045,2.045,0,0,1-2.892,2.892L10.6,96.264a2.045,2.045,0,0,1,0-2.893L22.446,81.53a2.046,2.046,0,1,1,2.894,2.892ZM42.213,79.61,31.4,110.238a2.046,2.046,0,0,1-3.858-1.362L38.355,78.248a2.046,2.046,0,0,1,3.858,1.362Zm17.006,15.5L47.378,106.956a2.046,2.046,0,0,1-2.894-2.892l10.4-10.4-9.245-9.245a2.045,2.045,0,0,1,2.892-2.892L59.219,92.222a2.045,2.045,0,0,1,0,2.892Z" transform="translate(0 162.3)" fill="#262626"/>
      <path id="Path_1-50" data-name="Path 1" d="M59.942,68.7H9.882A9.894,9.894,0,0,0,0,78.583V109.9a9.894,9.894,0,0,0,9.882,9.883h50.06a9.894,9.894,0,0,0,9.882-9.883V78.583A9.894,9.894,0,0,0,59.942,68.7ZM25.34,84.423l-10.4,10.4,9.245,9.245a2.045,2.045,0,0,1-2.892,2.892L10.6,96.264a2.045,2.045,0,0,1,0-2.893L22.446,81.53a2.046,2.046,0,1,1,2.894,2.892ZM42.213,79.61,31.4,110.238a2.046,2.046,0,0,1-3.858-1.362L38.355,78.248a2.046,2.046,0,0,1,3.858,1.362Zm17.006,15.5L47.378,106.956a2.046,2.046,0,0,1-2.894-2.892l10.4-10.4-9.245-9.245a2.045,2.045,0,0,1,2.892-2.892L59.219,92.222a2.045,2.045,0,0,1,0,2.892Z" transform="translate(95 162.3)" fill="#262626"/>
      <path id="Path_1-51" data-name="Path 1" d="M59.942,68.7H9.882A9.894,9.894,0,0,0,0,78.583V109.9a9.894,9.894,0,0,0,9.882,9.883h50.06a9.894,9.894,0,0,0,9.882-9.883V78.583A9.894,9.894,0,0,0,59.942,68.7ZM25.34,84.423l-10.4,10.4,9.245,9.245a2.045,2.045,0,0,1-2.892,2.892L10.6,96.264a2.045,2.045,0,0,1,0-2.893L22.446,81.53a2.046,2.046,0,1,1,2.894,2.892ZM42.213,79.61,31.4,110.238a2.046,2.046,0,0,1-3.858-1.362L38.355,78.248a2.046,2.046,0,0,1,3.858,1.362Zm17.006,15.5L47.378,106.956a2.046,2.046,0,0,1-2.894-2.892l10.4-10.4-9.245-9.245a2.045,2.045,0,0,1,2.892-2.892L59.219,92.222a2.045,2.045,0,0,1,0,2.892Z" transform="translate(190 162.3)" fill="#262626"/>
      <path id="Path_1-52" data-name="Path 1" d="M59.942,68.7H9.882A9.894,9.894,0,0,0,0,78.583V109.9a9.894,9.894,0,0,0,9.882,9.883h50.06a9.894,9.894,0,0,0,9.882-9.883V78.583A9.894,9.894,0,0,0,59.942,68.7ZM25.34,84.423l-10.4,10.4,9.245,9.245a2.045,2.045,0,0,1-2.892,2.892L10.6,96.264a2.045,2.045,0,0,1,0-2.893L22.446,81.53a2.046,2.046,0,1,1,2.894,2.892ZM42.213,79.61,31.4,110.238a2.046,2.046,0,0,1-3.858-1.362L38.355,78.248a2.046,2.046,0,0,1,3.858,1.362Zm17.006,15.5L47.378,106.956a2.046,2.046,0,0,1-2.894-2.892l10.4-10.4-9.245-9.245a2.045,2.045,0,0,1,2.892-2.892L59.219,92.222a2.045,2.045,0,0,1,0,2.892Z" transform="translate(285 162.3)" fill="#262626"/>
      <path id="Path_1-53" data-name="Path 1" d="M59.942,68.7H9.882A9.894,9.894,0,0,0,0,78.583V109.9a9.894,9.894,0,0,0,9.882,9.883h50.06a9.894,9.894,0,0,0,9.882-9.883V78.583A9.894,9.894,0,0,0,59.942,68.7ZM25.34,84.423l-10.4,10.4,9.245,9.245a2.045,2.045,0,0,1-2.892,2.892L10.6,96.264a2.045,2.045,0,0,1,0-2.893L22.446,81.53a2.046,2.046,0,1,1,2.894,2.892ZM42.213,79.61,31.4,110.238a2.046,2.046,0,0,1-3.858-1.362L38.355,78.248a2.046,2.046,0,0,1,3.858,1.362Zm17.006,15.5L47.378,106.956a2.046,2.046,0,0,1-2.894-2.892l10.4-10.4-9.245-9.245a2.045,2.045,0,0,1,2.892-2.892L59.219,92.222a2.045,2.045,0,0,1,0,2.892Z" transform="translate(380 162.3)" fill="#262626"/>
      <path id="Path_1-54" data-name="Path 1" d="M59.942,68.7H9.882A9.894,9.894,0,0,0,0,78.583V109.9a9.894,9.894,0,0,0,9.882,9.883h50.06a9.894,9.894,0,0,0,9.882-9.883V78.583A9.894,9.894,0,0,0,59.942,68.7ZM25.34,84.423l-10.4,10.4,9.245,9.245a2.045,2.045,0,0,1-2.892,2.892L10.6,96.264a2.045,2.045,0,0,1,0-2.893L22.446,81.53a2.046,2.046,0,1,1,2.894,2.892ZM42.213,79.61,31.4,110.238a2.046,2.046,0,0,1-3.858-1.362L38.355,78.248a2.046,2.046,0,0,1,3.858,1.362Zm17.006,15.5L47.378,106.956a2.046,2.046,0,0,1-2.894-2.892l10.4-10.4-9.245-9.245a2.045,2.045,0,0,1,2.892-2.892L59.219,92.222a2.045,2.045,0,0,1,0,2.892Z" transform="translate(475 162.3)" fill="#262626"/>
      <path id="Path_1-55" data-name="Path 1" d="M59.942,68.7H9.882A9.894,9.894,0,0,0,0,78.583V109.9a9.894,9.894,0,0,0,9.882,9.883h50.06a9.894,9.894,0,0,0,9.882-9.883V78.583A9.894,9.894,0,0,0,59.942,68.7ZM25.34,84.423l-10.4,10.4,9.245,9.245a2.045,2.045,0,0,1-2.892,2.892L10.6,96.264a2.045,2.045,0,0,1,0-2.893L22.446,81.53a2.046,2.046,0,1,1,2.894,2.892ZM42.213,79.61,31.4,110.238a2.046,2.046,0,0,1-3.858-1.362L38.355,78.248a2.046,2.046,0,0,1,3.858,1.362Zm17.006,15.5L47.378,106.956a2.046,2.046,0,0,1-2.894-2.892l10.4-10.4-9.245-9.245a2.045,2.045,0,0,1,2.892-2.892L59.219,92.222a2.045,2.045,0,0,1,0,2.892Z" transform="translate(570 162.3)" fill="#262626"/>
      <path id="Path_1-56" data-name="Path 1" d="M59.942,68.7H9.882A9.894,9.894,0,0,0,0,78.583V109.9a9.894,9.894,0,0,0,9.882,9.883h50.06a9.894,9.894,0,0,0,9.882-9.883V78.583A9.894,9.894,0,0,0,59.942,68.7ZM25.34,84.423l-10.4,10.4,9.245,9.245a2.045,2.045,0,0,1-2.892,2.892L10.6,96.264a2.045,2.045,0,0,1,0-2.893L22.446,81.53a2.046,2.046,0,1,1,2.894,2.892ZM42.213,79.61,31.4,110.238a2.046,2.046,0,0,1-3.858-1.362L38.355,78.248a2.046,2.046,0,0,1,3.858,1.362Zm17.006,15.5L47.378,106.956a2.046,2.046,0,0,1-2.894-2.892l10.4-10.4-9.245-9.245a2.045,2.045,0,0,1,2.892-2.892L59.219,92.222a2.045,2.045,0,0,1,0,2.892Z" transform="translate(665 162.3)" fill="#262626"/>
      <path id="Path_1-57" data-name="Path 1" d="M59.942,68.7H9.882A9.894,9.894,0,0,0,0,78.583V109.9a9.894,9.894,0,0,0,9.882,9.883h50.06a9.894,9.894,0,0,0,9.882-9.883V78.583A9.894,9.894,0,0,0,59.942,68.7ZM25.34,84.423l-10.4,10.4,9.245,9.245a2.045,2.045,0,0,1-2.892,2.892L10.6,96.264a2.045,2.045,0,0,1,0-2.893L22.446,81.53a2.046,2.046,0,1,1,2.894,2.892ZM42.213,79.61,31.4,110.238a2.046,2.046,0,0,1-3.858-1.362L38.355,78.248a2.046,2.046,0,0,1,3.858,1.362Zm17.006,15.5L47.378,106.956a2.046,2.046,0,0,1-2.894-2.892l10.4-10.4-9.245-9.245a2.045,2.045,0,0,1,2.892-2.892L59.219,92.222a2.045,2.045,0,0,1,0,2.892Z" transform="translate(760 162.3)" fill="#262626"/>
      <path id="Path_1-58" data-name="Path 1" d="M59.942,68.7H9.882A9.894,9.894,0,0,0,0,78.583V109.9a9.894,9.894,0,0,0,9.882,9.883h50.06a9.894,9.894,0,0,0,9.882-9.883V78.583A9.894,9.894,0,0,0,59.942,68.7ZM25.34,84.423l-10.4,10.4,9.245,9.245a2.045,2.045,0,0,1-2.892,2.892L10.6,96.264a2.045,2.045,0,0,1,0-2.893L22.446,81.53a2.046,2.046,0,1,1,2.894,2.892ZM42.213,79.61,31.4,110.238a2.046,2.046,0,0,1-3.858-1.362L38.355,78.248a2.046,2.046,0,0,1,3.858,1.362Zm17.006,15.5L47.378,106.956a2.046,2.046,0,0,1-2.894-2.892l10.4-10.4-9.245-9.245a2.045,2.045,0,0,1,2.892-2.892L59.219,92.222a2.045,2.045,0,0,1,0,2.892Z" transform="translate(855 162.3)" fill="#262626"/>
      <path id="Path_1-59" data-name="Path 1" d="M59.942,68.7H9.882A9.894,9.894,0,0,0,0,78.583V109.9a9.894,9.894,0,0,0,9.882,9.883h50.06a9.894,9.894,0,0,0,9.882-9.883V78.583A9.894,9.894,0,0,0,59.942,68.7ZM25.34,84.423l-10.4,10.4,9.245,9.245a2.045,2.045,0,0,1-2.892,2.892L10.6,96.264a2.045,2.045,0,0,1,0-2.893L22.446,81.53a2.046,2.046,0,1,1,2.894,2.892ZM42.213,79.61,31.4,110.238a2.046,2.046,0,0,1-3.858-1.362L38.355,78.248a2.046,2.046,0,0,1,3.858,1.362Zm17.006,15.5L47.378,106.956a2.046,2.046,0,0,1-2.894-2.892l10.4-10.4-9.245-9.245a2.045,2.045,0,0,1,2.892-2.892L59.219,92.222a2.045,2.045,0,0,1,0,2.892Z" transform="translate(950 162.3)" fill="#262626"/>
      <path id="Path_1-60" data-name="Path 1" d="M59.942,68.7H9.882A9.894,9.894,0,0,0,0,78.583V109.9a9.894,9.894,0,0,0,9.882,9.883h50.06a9.894,9.894,0,0,0,9.882-9.883V78.583A9.894,9.894,0,0,0,59.942,68.7ZM25.34,84.423l-10.4,10.4,9.245,9.245a2.045,2.045,0,0,1-2.892,2.892L10.6,96.264a2.045,2.045,0,0,1,0-2.893L22.446,81.53a2.046,2.046,0,1,1,2.894,2.892ZM42.213,79.61,31.4,110.238a2.046,2.046,0,0,1-3.858-1.362L38.355,78.248a2.046,2.046,0,0,1,3.858,1.362Zm17.006,15.5L47.378,106.956a2.046,2.046,0,0,1-2.894-2.892l10.4-10.4-9.245-9.245a2.045,2.045,0,0,1,2.892-2.892L59.219,92.222a2.045,2.045,0,0,1,0,2.892Z" transform="translate(1045 162.3)" fill="#262626"/>
      <path id="Path_1-61" data-name="Path 1" d="M59.942,68.7H9.882A9.894,9.894,0,0,0,0,78.583V109.9a9.894,9.894,0,0,0,9.882,9.883h50.06a9.894,9.894,0,0,0,9.882-9.883V78.583A9.894,9.894,0,0,0,59.942,68.7ZM25.34,84.423l-10.4,10.4,9.245,9.245a2.045,2.045,0,0,1-2.892,2.892L10.6,96.264a2.045,2.045,0,0,1,0-2.893L22.446,81.53a2.046,2.046,0,1,1,2.894,2.892ZM42.213,79.61,31.4,110.238a2.046,2.046,0,0,1-3.858-1.362L38.355,78.248a2.046,2.046,0,0,1,3.858,1.362Zm17.006,15.5L47.378,106.956a2.046,2.046,0,0,1-2.894-2.892l10.4-10.4-9.245-9.245a2.045,2.045,0,0,1,2.892-2.892L59.219,92.222a2.045,2.045,0,0,1,0,2.892Z" transform="translate(1140 162.3)" fill="#262626"/>
      <path id="Path_1-62" data-name="Path 1" d="M59.942,68.7H9.882A9.894,9.894,0,0,0,0,78.583V109.9a9.894,9.894,0,0,0,9.882,9.883h50.06a9.894,9.894,0,0,0,9.882-9.883V78.583A9.894,9.894,0,0,0,59.942,68.7ZM25.34,84.423l-10.4,10.4,9.245,9.245a2.045,2.045,0,0,1-2.892,2.892L10.6,96.264a2.045,2.045,0,0,1,0-2.893L22.446,81.53a2.046,2.046,0,1,1,2.894,2.892ZM42.213,79.61,31.4,110.238a2.046,2.046,0,0,1-3.858-1.362L38.355,78.248a2.046,2.046,0,0,1,3.858,1.362Zm17.006,15.5L47.378,106.956a2.046,2.046,0,0,1-2.894-2.892l10.4-10.4-9.245-9.245a2.045,2.045,0,0,1,2.892-2.892L59.219,92.222a2.045,2.045,0,0,1,0,2.892Z" transform="translate(1235 162.3)" fill="#262626"/>
      <path id="Path_1-63" data-name="Path 1" d="M59.942,68.7H9.882A9.894,9.894,0,0,0,0,78.583V109.9a9.894,9.894,0,0,0,9.882,9.883h50.06a9.894,9.894,0,0,0,9.882-9.883V78.583A9.894,9.894,0,0,0,59.942,68.7ZM25.34,84.423l-10.4,10.4,9.245,9.245a2.045,2.045,0,0,1-2.892,2.892L10.6,96.264a2.045,2.045,0,0,1,0-2.893L22.446,81.53a2.046,2.046,0,1,1,2.894,2.892ZM42.213,79.61,31.4,110.238a2.046,2.046,0,0,1-3.858-1.362L38.355,78.248a2.046,2.046,0,0,1,3.858,1.362Zm17.006,15.5L47.378,106.956a2.046,2.046,0,0,1-2.894-2.892l10.4-10.4-9.245-9.245a2.045,2.045,0,0,1,2.892-2.892L59.219,92.222a2.045,2.045,0,0,1,0,2.892Z" transform="translate(1330 162.3)" fill="#262626"/>
      <path id="Path_1-64" data-name="Path 1" d="M59.942,68.7H9.882A9.894,9.894,0,0,0,0,78.583V109.9a9.894,9.894,0,0,0,9.882,9.883h50.06a9.894,9.894,0,0,0,9.882-9.883V78.583A9.894,9.894,0,0,0,59.942,68.7ZM25.34,84.423l-10.4,10.4,9.245,9.245a2.045,2.045,0,0,1-2.892,2.892L10.6,96.264a2.045,2.045,0,0,1,0-2.893L22.446,81.53a2.046,2.046,0,1,1,2.894,2.892ZM42.213,79.61,31.4,110.238a2.046,2.046,0,0,1-3.858-1.362L38.355,78.248a2.046,2.046,0,0,1,3.858,1.362Zm17.006,15.5L47.378,106.956a2.046,2.046,0,0,1-2.894-2.892l10.4-10.4-9.245-9.245a2.045,2.045,0,0,1,2.892-2.892L59.219,92.222a2.045,2.045,0,0,1,0,2.892Z" transform="translate(1425 162.3)" fill="#262626"/>
      <path id="Path_1-65" data-name="Path 1" d="M59.942,68.7H9.882A9.894,9.894,0,0,0,0,78.583V109.9a9.894,9.894,0,0,0,9.882,9.883h50.06a9.894,9.894,0,0,0,9.882-9.883V78.583A9.894,9.894,0,0,0,59.942,68.7ZM25.34,84.423l-10.4,10.4,9.245,9.245a2.045,2.045,0,0,1-2.892,2.892L10.6,96.264a2.045,2.045,0,0,1,0-2.893L22.446,81.53a2.046,2.046,0,1,1,2.894,2.892ZM42.213,79.61,31.4,110.238a2.046,2.046,0,0,1-3.858-1.362L38.355,78.248a2.046,2.046,0,0,1,3.858,1.362Zm17.006,15.5L47.378,106.956a2.046,2.046,0,0,1-2.894-2.892l10.4-10.4-9.245-9.245a2.045,2.045,0,0,1,2.892-2.892L59.219,92.222a2.045,2.045,0,0,1,0,2.892Z" transform="translate(0 239.3)" fill="#262626"/>
      <path id="Path_1-66" data-name="Path 1" d="M59.942,68.7H9.882A9.894,9.894,0,0,0,0,78.583V109.9a9.894,9.894,0,0,0,9.882,9.883h50.06a9.894,9.894,0,0,0,9.882-9.883V78.583A9.894,9.894,0,0,0,59.942,68.7ZM25.34,84.423l-10.4,10.4,9.245,9.245a2.045,2.045,0,0,1-2.892,2.892L10.6,96.264a2.045,2.045,0,0,1,0-2.893L22.446,81.53a2.046,2.046,0,1,1,2.894,2.892ZM42.213,79.61,31.4,110.238a2.046,2.046,0,0,1-3.858-1.362L38.355,78.248a2.046,2.046,0,0,1,3.858,1.362Zm17.006,15.5L47.378,106.956a2.046,2.046,0,0,1-2.894-2.892l10.4-10.4-9.245-9.245a2.045,2.045,0,0,1,2.892-2.892L59.219,92.222a2.045,2.045,0,0,1,0,2.892Z" transform="translate(95 239.3)" fill="#262626"/>
      <path id="Path_1-67" data-name="Path 1" d="M59.942,68.7H9.882A9.894,9.894,0,0,0,0,78.583V109.9a9.894,9.894,0,0,0,9.882,9.883h50.06a9.894,9.894,0,0,0,9.882-9.883V78.583A9.894,9.894,0,0,0,59.942,68.7ZM25.34,84.423l-10.4,10.4,9.245,9.245a2.045,2.045,0,0,1-2.892,2.892L10.6,96.264a2.045,2.045,0,0,1,0-2.893L22.446,81.53a2.046,2.046,0,1,1,2.894,2.892ZM42.213,79.61,31.4,110.238a2.046,2.046,0,0,1-3.858-1.362L38.355,78.248a2.046,2.046,0,0,1,3.858,1.362Zm17.006,15.5L47.378,106.956a2.046,2.046,0,0,1-2.894-2.892l10.4-10.4-9.245-9.245a2.045,2.045,0,0,1,2.892-2.892L59.219,92.222a2.045,2.045,0,0,1,0,2.892Z" transform="translate(190 239.3)" fill="#262626"/>
      <path id="Path_1-68" data-name="Path 1" d="M59.942,68.7H9.882A9.894,9.894,0,0,0,0,78.583V109.9a9.894,9.894,0,0,0,9.882,9.883h50.06a9.894,9.894,0,0,0,9.882-9.883V78.583A9.894,9.894,0,0,0,59.942,68.7ZM25.34,84.423l-10.4,10.4,9.245,9.245a2.045,2.045,0,0,1-2.892,2.892L10.6,96.264a2.045,2.045,0,0,1,0-2.893L22.446,81.53a2.046,2.046,0,1,1,2.894,2.892ZM42.213,79.61,31.4,110.238a2.046,2.046,0,0,1-3.858-1.362L38.355,78.248a2.046,2.046,0,0,1,3.858,1.362Zm17.006,15.5L47.378,106.956a2.046,2.046,0,0,1-2.894-2.892l10.4-10.4-9.245-9.245a2.045,2.045,0,0,1,2.892-2.892L59.219,92.222a2.045,2.045,0,0,1,0,2.892Z" transform="translate(285 239.3)" fill="#262626"/>
      <path id="Path_1-69" data-name="Path 1" d="M59.942,68.7H9.882A9.894,9.894,0,0,0,0,78.583V109.9a9.894,9.894,0,0,0,9.882,9.883h50.06a9.894,9.894,0,0,0,9.882-9.883V78.583A9.894,9.894,0,0,0,59.942,68.7ZM25.34,84.423l-10.4,10.4,9.245,9.245a2.045,2.045,0,0,1-2.892,2.892L10.6,96.264a2.045,2.045,0,0,1,0-2.893L22.446,81.53a2.046,2.046,0,1,1,2.894,2.892ZM42.213,79.61,31.4,110.238a2.046,2.046,0,0,1-3.858-1.362L38.355,78.248a2.046,2.046,0,0,1,3.858,1.362Zm17.006,15.5L47.378,106.956a2.046,2.046,0,0,1-2.894-2.892l10.4-10.4-9.245-9.245a2.045,2.045,0,0,1,2.892-2.892L59.219,92.222a2.045,2.045,0,0,1,0,2.892Z" transform="translate(380 239.3)" fill="#262626"/>
      <path id="Path_1-70" data-name="Path 1" d="M59.942,68.7H9.882A9.894,9.894,0,0,0,0,78.583V109.9a9.894,9.894,0,0,0,9.882,9.883h50.06a9.894,9.894,0,0,0,9.882-9.883V78.583A9.894,9.894,0,0,0,59.942,68.7ZM25.34,84.423l-10.4,10.4,9.245,9.245a2.045,2.045,0,0,1-2.892,2.892L10.6,96.264a2.045,2.045,0,0,1,0-2.893L22.446,81.53a2.046,2.046,0,1,1,2.894,2.892ZM42.213,79.61,31.4,110.238a2.046,2.046,0,0,1-3.858-1.362L38.355,78.248a2.046,2.046,0,0,1,3.858,1.362Zm17.006,15.5L47.378,106.956a2.046,2.046,0,0,1-2.894-2.892l10.4-10.4-9.245-9.245a2.045,2.045,0,0,1,2.892-2.892L59.219,92.222a2.045,2.045,0,0,1,0,2.892Z" transform="translate(475 239.3)" fill="#262626"/>
      <path id="Path_1-71" data-name="Path 1" d="M59.942,68.7H9.882A9.894,9.894,0,0,0,0,78.583V109.9a9.894,9.894,0,0,0,9.882,9.883h50.06a9.894,9.894,0,0,0,9.882-9.883V78.583A9.894,9.894,0,0,0,59.942,68.7ZM25.34,84.423l-10.4,10.4,9.245,9.245a2.045,2.045,0,0,1-2.892,2.892L10.6,96.264a2.045,2.045,0,0,1,0-2.893L22.446,81.53a2.046,2.046,0,1,1,2.894,2.892ZM42.213,79.61,31.4,110.238a2.046,2.046,0,0,1-3.858-1.362L38.355,78.248a2.046,2.046,0,0,1,3.858,1.362Zm17.006,15.5L47.378,106.956a2.046,2.046,0,0,1-2.894-2.892l10.4-10.4-9.245-9.245a2.045,2.045,0,0,1,2.892-2.892L59.219,92.222a2.045,2.045,0,0,1,0,2.892Z" transform="translate(570 239.3)" fill="#262626"/>
      <path id="Path_1-72" data-name="Path 1" d="M59.942,68.7H9.882A9.894,9.894,0,0,0,0,78.583V109.9a9.894,9.894,0,0,0,9.882,9.883h50.06a9.894,9.894,0,0,0,9.882-9.883V78.583A9.894,9.894,0,0,0,59.942,68.7ZM25.34,84.423l-10.4,10.4,9.245,9.245a2.045,2.045,0,0,1-2.892,2.892L10.6,96.264a2.045,2.045,0,0,1,0-2.893L22.446,81.53a2.046,2.046,0,1,1,2.894,2.892ZM42.213,79.61,31.4,110.238a2.046,2.046,0,0,1-3.858-1.362L38.355,78.248a2.046,2.046,0,0,1,3.858,1.362Zm17.006,15.5L47.378,106.956a2.046,2.046,0,0,1-2.894-2.892l10.4-10.4-9.245-9.245a2.045,2.045,0,0,1,2.892-2.892L59.219,92.222a2.045,2.045,0,0,1,0,2.892Z" transform="translate(665 239.3)" fill="#262626"/>
      <path id="Path_1-73" data-name="Path 1" d="M59.942,68.7H9.882A9.894,9.894,0,0,0,0,78.583V109.9a9.894,9.894,0,0,0,9.882,9.883h50.06a9.894,9.894,0,0,0,9.882-9.883V78.583A9.894,9.894,0,0,0,59.942,68.7ZM25.34,84.423l-10.4,10.4,9.245,9.245a2.045,2.045,0,0,1-2.892,2.892L10.6,96.264a2.045,2.045,0,0,1,0-2.893L22.446,81.53a2.046,2.046,0,1,1,2.894,2.892ZM42.213,79.61,31.4,110.238a2.046,2.046,0,0,1-3.858-1.362L38.355,78.248a2.046,2.046,0,0,1,3.858,1.362Zm17.006,15.5L47.378,106.956a2.046,2.046,0,0,1-2.894-2.892l10.4-10.4-9.245-9.245a2.045,2.045,0,0,1,2.892-2.892L59.219,92.222a2.045,2.045,0,0,1,0,2.892Z" transform="translate(760 239.3)" fill="#262626"/>
      <path id="Path_1-74" data-name="Path 1" d="M59.942,68.7H9.882A9.894,9.894,0,0,0,0,78.583V109.9a9.894,9.894,0,0,0,9.882,9.883h50.06a9.894,9.894,0,0,0,9.882-9.883V78.583A9.894,9.894,0,0,0,59.942,68.7ZM25.34,84.423l-10.4,10.4,9.245,9.245a2.045,2.045,0,0,1-2.892,2.892L10.6,96.264a2.045,2.045,0,0,1,0-2.893L22.446,81.53a2.046,2.046,0,1,1,2.894,2.892ZM42.213,79.61,31.4,110.238a2.046,2.046,0,0,1-3.858-1.362L38.355,78.248a2.046,2.046,0,0,1,3.858,1.362Zm17.006,15.5L47.378,106.956a2.046,2.046,0,0,1-2.894-2.892l10.4-10.4-9.245-9.245a2.045,2.045,0,0,1,2.892-2.892L59.219,92.222a2.045,2.045,0,0,1,0,2.892Z" transform="translate(855 239.3)" fill="#262626"/>
      <path id="Path_1-75" data-name="Path 1" d="M59.942,68.7H9.882A9.894,9.894,0,0,0,0,78.583V109.9a9.894,9.894,0,0,0,9.882,9.883h50.06a9.894,9.894,0,0,0,9.882-9.883V78.583A9.894,9.894,0,0,0,59.942,68.7ZM25.34,84.423l-10.4,10.4,9.245,9.245a2.045,2.045,0,0,1-2.892,2.892L10.6,96.264a2.045,2.045,0,0,1,0-2.893L22.446,81.53a2.046,2.046,0,1,1,2.894,2.892ZM42.213,79.61,31.4,110.238a2.046,2.046,0,0,1-3.858-1.362L38.355,78.248a2.046,2.046,0,0,1,3.858,1.362Zm17.006,15.5L47.378,106.956a2.046,2.046,0,0,1-2.894-2.892l10.4-10.4-9.245-9.245a2.045,2.045,0,0,1,2.892-2.892L59.219,92.222a2.045,2.045,0,0,1,0,2.892Z" transform="translate(950 239.3)" fill="#262626"/>
      <path id="Path_1-76" data-name="Path 1" d="M59.942,68.7H9.882A9.894,9.894,0,0,0,0,78.583V109.9a9.894,9.894,0,0,0,9.882,9.883h50.06a9.894,9.894,0,0,0,9.882-9.883V78.583A9.894,9.894,0,0,0,59.942,68.7ZM25.34,84.423l-10.4,10.4,9.245,9.245a2.045,2.045,0,0,1-2.892,2.892L10.6,96.264a2.045,2.045,0,0,1,0-2.893L22.446,81.53a2.046,2.046,0,1,1,2.894,2.892ZM42.213,79.61,31.4,110.238a2.046,2.046,0,0,1-3.858-1.362L38.355,78.248a2.046,2.046,0,0,1,3.858,1.362Zm17.006,15.5L47.378,106.956a2.046,2.046,0,0,1-2.894-2.892l10.4-10.4-9.245-9.245a2.045,2.045,0,0,1,2.892-2.892L59.219,92.222a2.045,2.045,0,0,1,0,2.892Z" transform="translate(1045 239.3)" fill="#262626"/>
      <path id="Path_1-77" data-name="Path 1" d="M59.942,68.7H9.882A9.894,9.894,0,0,0,0,78.583V109.9a9.894,9.894,0,0,0,9.882,9.883h50.06a9.894,9.894,0,0,0,9.882-9.883V78.583A9.894,9.894,0,0,0,59.942,68.7ZM25.34,84.423l-10.4,10.4,9.245,9.245a2.045,2.045,0,0,1-2.892,2.892L10.6,96.264a2.045,2.045,0,0,1,0-2.893L22.446,81.53a2.046,2.046,0,1,1,2.894,2.892ZM42.213,79.61,31.4,110.238a2.046,2.046,0,0,1-3.858-1.362L38.355,78.248a2.046,2.046,0,0,1,3.858,1.362Zm17.006,15.5L47.378,106.956a2.046,2.046,0,0,1-2.894-2.892l10.4-10.4-9.245-9.245a2.045,2.045,0,0,1,2.892-2.892L59.219,92.222a2.045,2.045,0,0,1,0,2.892Z" transform="translate(1140 239.3)" fill="#262626"/>
      <path id="Path_1-78" data-name="Path 1" d="M59.942,68.7H9.882A9.894,9.894,0,0,0,0,78.583V109.9a9.894,9.894,0,0,0,9.882,9.883h50.06a9.894,9.894,0,0,0,9.882-9.883V78.583A9.894,9.894,0,0,0,59.942,68.7ZM25.34,84.423l-10.4,10.4,9.245,9.245a2.045,2.045,0,0,1-2.892,2.892L10.6,96.264a2.045,2.045,0,0,1,0-2.893L22.446,81.53a2.046,2.046,0,1,1,2.894,2.892ZM42.213,79.61,31.4,110.238a2.046,2.046,0,0,1-3.858-1.362L38.355,78.248a2.046,2.046,0,0,1,3.858,1.362Zm17.006,15.5L47.378,106.956a2.046,2.046,0,0,1-2.894-2.892l10.4-10.4-9.245-9.245a2.045,2.045,0,0,1,2.892-2.892L59.219,92.222a2.045,2.045,0,0,1,0,2.892Z" transform="translate(1235 239.3)" fill="#262626"/>
      <path id="Path_1-79" data-name="Path 1" d="M59.942,68.7H9.882A9.894,9.894,0,0,0,0,78.583V109.9a9.894,9.894,0,0,0,9.882,9.883h50.06a9.894,9.894,0,0,0,9.882-9.883V78.583A9.894,9.894,0,0,0,59.942,68.7ZM25.34,84.423l-10.4,10.4,9.245,9.245a2.045,2.045,0,0,1-2.892,2.892L10.6,96.264a2.045,2.045,0,0,1,0-2.893L22.446,81.53a2.046,2.046,0,1,1,2.894,2.892ZM42.213,79.61,31.4,110.238a2.046,2.046,0,0,1-3.858-1.362L38.355,78.248a2.046,2.046,0,0,1,3.858,1.362Zm17.006,15.5L47.378,106.956a2.046,2.046,0,0,1-2.894-2.892l10.4-10.4-9.245-9.245a2.045,2.045,0,0,1,2.892-2.892L59.219,92.222a2.045,2.045,0,0,1,0,2.892Z" transform="translate(1330 239.3)" fill="#262626"/>
      <path id="Path_1-80" data-name="Path 1" d="M59.942,68.7H9.882A9.894,9.894,0,0,0,0,78.583V109.9a9.894,9.894,0,0,0,9.882,9.883h50.06a9.894,9.894,0,0,0,9.882-9.883V78.583A9.894,9.894,0,0,0,59.942,68.7ZM25.34,84.423l-10.4,10.4,9.245,9.245a2.045,2.045,0,0,1-2.892,2.892L10.6,96.264a2.045,2.045,0,0,1,0-2.893L22.446,81.53a2.046,2.046,0,1,1,2.894,2.892ZM42.213,79.61,31.4,110.238a2.046,2.046,0,0,1-3.858-1.362L38.355,78.248a2.046,2.046,0,0,1,3.858,1.362Zm17.006,15.5L47.378,106.956a2.046,2.046,0,0,1-2.894-2.892l10.4-10.4-9.245-9.245a2.045,2.045,0,0,1,2.892-2.892L59.219,92.222a2.045,2.045,0,0,1,0,2.892Z" transform="translate(1425 239.3)" fill="#262626"/>
      <path id="Path_1-81" data-name="Path 1" d="M59.942,68.7H9.882A9.894,9.894,0,0,0,0,78.583V109.9a9.894,9.894,0,0,0,9.882,9.883h50.06a9.894,9.894,0,0,0,9.882-9.883V78.583A9.894,9.894,0,0,0,59.942,68.7ZM25.34,84.423l-10.4,10.4,9.245,9.245a2.045,2.045,0,0,1-2.892,2.892L10.6,96.264a2.045,2.045,0,0,1,0-2.893L22.446,81.53a2.046,2.046,0,1,1,2.894,2.892ZM42.213,79.61,31.4,110.238a2.046,2.046,0,0,1-3.858-1.362L38.355,78.248a2.046,2.046,0,0,1,3.858,1.362Zm17.006,15.5L47.378,106.956a2.046,2.046,0,0,1-2.894-2.892l10.4-10.4-9.245-9.245a2.045,2.045,0,0,1,2.892-2.892L59.219,92.222a2.045,2.045,0,0,1,0,2.892Z" transform="translate(0 316.3)" fill="#262626"/>
      <path id="Path_1-82" data-name="Path 1" d="M59.942,68.7H9.882A9.894,9.894,0,0,0,0,78.583V109.9a9.894,9.894,0,0,0,9.882,9.883h50.06a9.894,9.894,0,0,0,9.882-9.883V78.583A9.894,9.894,0,0,0,59.942,68.7ZM25.34,84.423l-10.4,10.4,9.245,9.245a2.045,2.045,0,0,1-2.892,2.892L10.6,96.264a2.045,2.045,0,0,1,0-2.893L22.446,81.53a2.046,2.046,0,1,1,2.894,2.892ZM42.213,79.61,31.4,110.238a2.046,2.046,0,0,1-3.858-1.362L38.355,78.248a2.046,2.046,0,0,1,3.858,1.362Zm17.006,15.5L47.378,106.956a2.046,2.046,0,0,1-2.894-2.892l10.4-10.4-9.245-9.245a2.045,2.045,0,0,1,2.892-2.892L59.219,92.222a2.045,2.045,0,0,1,0,2.892Z" transform="translate(95 316.3)" fill="#262626"/>
      <path id="Path_1-83" data-name="Path 1" d="M59.942,68.7H9.882A9.894,9.894,0,0,0,0,78.583V109.9a9.894,9.894,0,0,0,9.882,9.883h50.06a9.894,9.894,0,0,0,9.882-9.883V78.583A9.894,9.894,0,0,0,59.942,68.7ZM25.34,84.423l-10.4,10.4,9.245,9.245a2.045,2.045,0,0,1-2.892,2.892L10.6,96.264a2.045,2.045,0,0,1,0-2.893L22.446,81.53a2.046,2.046,0,1,1,2.894,2.892ZM42.213,79.61,31.4,110.238a2.046,2.046,0,0,1-3.858-1.362L38.355,78.248a2.046,2.046,0,0,1,3.858,1.362Zm17.006,15.5L47.378,106.956a2.046,2.046,0,0,1-2.894-2.892l10.4-10.4-9.245-9.245a2.045,2.045,0,0,1,2.892-2.892L59.219,92.222a2.045,2.045,0,0,1,0,2.892Z" transform="translate(190 316.3)" fill="#262626"/>
      <path id="Path_1-84" data-name="Path 1" d="M59.942,68.7H9.882A9.894,9.894,0,0,0,0,78.583V109.9a9.894,9.894,0,0,0,9.882,9.883h50.06a9.894,9.894,0,0,0,9.882-9.883V78.583A9.894,9.894,0,0,0,59.942,68.7ZM25.34,84.423l-10.4,10.4,9.245,9.245a2.045,2.045,0,0,1-2.892,2.892L10.6,96.264a2.045,2.045,0,0,1,0-2.893L22.446,81.53a2.046,2.046,0,1,1,2.894,2.892ZM42.213,79.61,31.4,110.238a2.046,2.046,0,0,1-3.858-1.362L38.355,78.248a2.046,2.046,0,0,1,3.858,1.362Zm17.006,15.5L47.378,106.956a2.046,2.046,0,0,1-2.894-2.892l10.4-10.4-9.245-9.245a2.045,2.045,0,0,1,2.892-2.892L59.219,92.222a2.045,2.045,0,0,1,0,2.892Z" transform="translate(285 316.3)" fill="#262626"/>
      <path id="Path_1-85" data-name="Path 1" d="M59.942,68.7H9.882A9.894,9.894,0,0,0,0,78.583V109.9a9.894,9.894,0,0,0,9.882,9.883h50.06a9.894,9.894,0,0,0,9.882-9.883V78.583A9.894,9.894,0,0,0,59.942,68.7ZM25.34,84.423l-10.4,10.4,9.245,9.245a2.045,2.045,0,0,1-2.892,2.892L10.6,96.264a2.045,2.045,0,0,1,0-2.893L22.446,81.53a2.046,2.046,0,1,1,2.894,2.892ZM42.213,79.61,31.4,110.238a2.046,2.046,0,0,1-3.858-1.362L38.355,78.248a2.046,2.046,0,0,1,3.858,1.362Zm17.006,15.5L47.378,106.956a2.046,2.046,0,0,1-2.894-2.892l10.4-10.4-9.245-9.245a2.045,2.045,0,0,1,2.892-2.892L59.219,92.222a2.045,2.045,0,0,1,0,2.892Z" transform="translate(380 316.3)" fill="#262626"/>
      <path id="Path_1-86" data-name="Path 1" d="M59.942,68.7H9.882A9.894,9.894,0,0,0,0,78.583V109.9a9.894,9.894,0,0,0,9.882,9.883h50.06a9.894,9.894,0,0,0,9.882-9.883V78.583A9.894,9.894,0,0,0,59.942,68.7ZM25.34,84.423l-10.4,10.4,9.245,9.245a2.045,2.045,0,0,1-2.892,2.892L10.6,96.264a2.045,2.045,0,0,1,0-2.893L22.446,81.53a2.046,2.046,0,1,1,2.894,2.892ZM42.213,79.61,31.4,110.238a2.046,2.046,0,0,1-3.858-1.362L38.355,78.248a2.046,2.046,0,0,1,3.858,1.362Zm17.006,15.5L47.378,106.956a2.046,2.046,0,0,1-2.894-2.892l10.4-10.4-9.245-9.245a2.045,2.045,0,0,1,2.892-2.892L59.219,92.222a2.045,2.045,0,0,1,0,2.892Z" transform="translate(475 316.3)" fill="#262626"/>
      <path id="Path_1-87" data-name="Path 1" d="M59.942,68.7H9.882A9.894,9.894,0,0,0,0,78.583V109.9a9.894,9.894,0,0,0,9.882,9.883h50.06a9.894,9.894,0,0,0,9.882-9.883V78.583A9.894,9.894,0,0,0,59.942,68.7ZM25.34,84.423l-10.4,10.4,9.245,9.245a2.045,2.045,0,0,1-2.892,2.892L10.6,96.264a2.045,2.045,0,0,1,0-2.893L22.446,81.53a2.046,2.046,0,1,1,2.894,2.892ZM42.213,79.61,31.4,110.238a2.046,2.046,0,0,1-3.858-1.362L38.355,78.248a2.046,2.046,0,0,1,3.858,1.362Zm17.006,15.5L47.378,106.956a2.046,2.046,0,0,1-2.894-2.892l10.4-10.4-9.245-9.245a2.045,2.045,0,0,1,2.892-2.892L59.219,92.222a2.045,2.045,0,0,1,0,2.892Z" transform="translate(570 316.3)" fill="#262626"/>
      <path id="Path_1-88" data-name="Path 1" d="M59.942,68.7H9.882A9.894,9.894,0,0,0,0,78.583V109.9a9.894,9.894,0,0,0,9.882,9.883h50.06a9.894,9.894,0,0,0,9.882-9.883V78.583A9.894,9.894,0,0,0,59.942,68.7ZM25.34,84.423l-10.4,10.4,9.245,9.245a2.045,2.045,0,0,1-2.892,2.892L10.6,96.264a2.045,2.045,0,0,1,0-2.893L22.446,81.53a2.046,2.046,0,1,1,2.894,2.892ZM42.213,79.61,31.4,110.238a2.046,2.046,0,0,1-3.858-1.362L38.355,78.248a2.046,2.046,0,0,1,3.858,1.362Zm17.006,15.5L47.378,106.956a2.046,2.046,0,0,1-2.894-2.892l10.4-10.4-9.245-9.245a2.045,2.045,0,0,1,2.892-2.892L59.219,92.222a2.045,2.045,0,0,1,0,2.892Z" transform="translate(665 316.3)" fill="#262626"/>
      <path id="Path_1-89" data-name="Path 1" d="M59.942,68.7H9.882A9.894,9.894,0,0,0,0,78.583V109.9a9.894,9.894,0,0,0,9.882,9.883h50.06a9.894,9.894,0,0,0,9.882-9.883V78.583A9.894,9.894,0,0,0,59.942,68.7ZM25.34,84.423l-10.4,10.4,9.245,9.245a2.045,2.045,0,0,1-2.892,2.892L10.6,96.264a2.045,2.045,0,0,1,0-2.893L22.446,81.53a2.046,2.046,0,1,1,2.894,2.892ZM42.213,79.61,31.4,110.238a2.046,2.046,0,0,1-3.858-1.362L38.355,78.248a2.046,2.046,0,0,1,3.858,1.362Zm17.006,15.5L47.378,106.956a2.046,2.046,0,0,1-2.894-2.892l10.4-10.4-9.245-9.245a2.045,2.045,0,0,1,2.892-2.892L59.219,92.222a2.045,2.045,0,0,1,0,2.892Z" transform="translate(760 316.3)" fill="#262626"/>
      <path id="Path_1-90" data-name="Path 1" d="M59.942,68.7H9.882A9.894,9.894,0,0,0,0,78.583V109.9a9.894,9.894,0,0,0,9.882,9.883h50.06a9.894,9.894,0,0,0,9.882-9.883V78.583A9.894,9.894,0,0,0,59.942,68.7ZM25.34,84.423l-10.4,10.4,9.245,9.245a2.045,2.045,0,0,1-2.892,2.892L10.6,96.264a2.045,2.045,0,0,1,0-2.893L22.446,81.53a2.046,2.046,0,1,1,2.894,2.892ZM42.213,79.61,31.4,110.238a2.046,2.046,0,0,1-3.858-1.362L38.355,78.248a2.046,2.046,0,0,1,3.858,1.362Zm17.006,15.5L47.378,106.956a2.046,2.046,0,0,1-2.894-2.892l10.4-10.4-9.245-9.245a2.045,2.045,0,0,1,2.892-2.892L59.219,92.222a2.045,2.045,0,0,1,0,2.892Z" transform="translate(855 316.3)" fill="#262626"/>
      <path id="Path_1-91" data-name="Path 1" d="M59.942,68.7H9.882A9.894,9.894,0,0,0,0,78.583V109.9a9.894,9.894,0,0,0,9.882,9.883h50.06a9.894,9.894,0,0,0,9.882-9.883V78.583A9.894,9.894,0,0,0,59.942,68.7ZM25.34,84.423l-10.4,10.4,9.245,9.245a2.045,2.045,0,0,1-2.892,2.892L10.6,96.264a2.045,2.045,0,0,1,0-2.893L22.446,81.53a2.046,2.046,0,1,1,2.894,2.892ZM42.213,79.61,31.4,110.238a2.046,2.046,0,0,1-3.858-1.362L38.355,78.248a2.046,2.046,0,0,1,3.858,1.362Zm17.006,15.5L47.378,106.956a2.046,2.046,0,0,1-2.894-2.892l10.4-10.4-9.245-9.245a2.045,2.045,0,0,1,2.892-2.892L59.219,92.222a2.045,2.045,0,0,1,0,2.892Z" transform="translate(950 316.3)" fill="#262626"/>
      <path id="Path_1-92" data-name="Path 1" d="M59.942,68.7H9.882A9.894,9.894,0,0,0,0,78.583V109.9a9.894,9.894,0,0,0,9.882,9.883h50.06a9.894,9.894,0,0,0,9.882-9.883V78.583A9.894,9.894,0,0,0,59.942,68.7ZM25.34,84.423l-10.4,10.4,9.245,9.245a2.045,2.045,0,0,1-2.892,2.892L10.6,96.264a2.045,2.045,0,0,1,0-2.893L22.446,81.53a2.046,2.046,0,1,1,2.894,2.892ZM42.213,79.61,31.4,110.238a2.046,2.046,0,0,1-3.858-1.362L38.355,78.248a2.046,2.046,0,0,1,3.858,1.362Zm17.006,15.5L47.378,106.956a2.046,2.046,0,0,1-2.894-2.892l10.4-10.4-9.245-9.245a2.045,2.045,0,0,1,2.892-2.892L59.219,92.222a2.045,2.045,0,0,1,0,2.892Z" transform="translate(1045 316.3)" fill="#262626"/>
      <path id="Path_1-93" data-name="Path 1" d="M59.942,68.7H9.882A9.894,9.894,0,0,0,0,78.583V109.9a9.894,9.894,0,0,0,9.882,9.883h50.06a9.894,9.894,0,0,0,9.882-9.883V78.583A9.894,9.894,0,0,0,59.942,68.7ZM25.34,84.423l-10.4,10.4,9.245,9.245a2.045,2.045,0,0,1-2.892,2.892L10.6,96.264a2.045,2.045,0,0,1,0-2.893L22.446,81.53a2.046,2.046,0,1,1,2.894,2.892ZM42.213,79.61,31.4,110.238a2.046,2.046,0,0,1-3.858-1.362L38.355,78.248a2.046,2.046,0,0,1,3.858,1.362Zm17.006,15.5L47.378,106.956a2.046,2.046,0,0,1-2.894-2.892l10.4-10.4-9.245-9.245a2.045,2.045,0,0,1,2.892-2.892L59.219,92.222a2.045,2.045,0,0,1,0,2.892Z" transform="translate(1140 316.3)" fill="#262626"/>
      <path id="Path_1-94" data-name="Path 1" d="M59.942,68.7H9.882A9.894,9.894,0,0,0,0,78.583V109.9a9.894,9.894,0,0,0,9.882,9.883h50.06a9.894,9.894,0,0,0,9.882-9.883V78.583A9.894,9.894,0,0,0,59.942,68.7ZM25.34,84.423l-10.4,10.4,9.245,9.245a2.045,2.045,0,0,1-2.892,2.892L10.6,96.264a2.045,2.045,0,0,1,0-2.893L22.446,81.53a2.046,2.046,0,1,1,2.894,2.892ZM42.213,79.61,31.4,110.238a2.046,2.046,0,0,1-3.858-1.362L38.355,78.248a2.046,2.046,0,0,1,3.858,1.362Zm17.006,15.5L47.378,106.956a2.046,2.046,0,0,1-2.894-2.892l10.4-10.4-9.245-9.245a2.045,2.045,0,0,1,2.892-2.892L59.219,92.222a2.045,2.045,0,0,1,0,2.892Z" transform="translate(1235 316.3)" fill="#262626"/>
      <path id="Path_1-95" data-name="Path 1" d="M59.942,68.7H9.882A9.894,9.894,0,0,0,0,78.583V109.9a9.894,9.894,0,0,0,9.882,9.883h50.06a9.894,9.894,0,0,0,9.882-9.883V78.583A9.894,9.894,0,0,0,59.942,68.7ZM25.34,84.423l-10.4,10.4,9.245,9.245a2.045,2.045,0,0,1-2.892,2.892L10.6,96.264a2.045,2.045,0,0,1,0-2.893L22.446,81.53a2.046,2.046,0,1,1,2.894,2.892ZM42.213,79.61,31.4,110.238a2.046,2.046,0,0,1-3.858-1.362L38.355,78.248a2.046,2.046,0,0,1,3.858,1.362Zm17.006,15.5L47.378,106.956a2.046,2.046,0,0,1-2.894-2.892l10.4-10.4-9.245-9.245a2.045,2.045,0,0,1,2.892-2.892L59.219,92.222a2.045,2.045,0,0,1,0,2.892Z" transform="translate(1330 316.3)" fill="#262626"/>
      <path id="Path_1-96" data-name="Path 1" d="M59.942,68.7H9.882A9.894,9.894,0,0,0,0,78.583V109.9a9.894,9.894,0,0,0,9.882,9.883h50.06a9.894,9.894,0,0,0,9.882-9.883V78.583A9.894,9.894,0,0,0,59.942,68.7ZM25.34,84.423l-10.4,10.4,9.245,9.245a2.045,2.045,0,0,1-2.892,2.892L10.6,96.264a2.045,2.045,0,0,1,0-2.893L22.446,81.53a2.046,2.046,0,1,1,2.894,2.892ZM42.213,79.61,31.4,110.238a2.046,2.046,0,0,1-3.858-1.362L38.355,78.248a2.046,2.046,0,0,1,3.858,1.362Zm17.006,15.5L47.378,106.956a2.046,2.046,0,0,1-2.894-2.892l10.4-10.4-9.245-9.245a2.045,2.045,0,0,1,2.892-2.892L59.219,92.222a2.045,2.045,0,0,1,0,2.892Z" transform="translate(1425 316.3)" fill="#262626"/>
      <path id="Path_1-97" data-name="Path 1" d="M59.942,68.7H9.882A9.894,9.894,0,0,0,0,78.583V109.9a9.894,9.894,0,0,0,9.882,9.883h50.06a9.894,9.894,0,0,0,9.882-9.883V78.583A9.894,9.894,0,0,0,59.942,68.7ZM25.34,84.423l-10.4,10.4,9.245,9.245a2.045,2.045,0,0,1-2.892,2.892L10.6,96.264a2.045,2.045,0,0,1,0-2.893L22.446,81.53a2.046,2.046,0,1,1,2.894,2.892ZM42.213,79.61,31.4,110.238a2.046,2.046,0,0,1-3.858-1.362L38.355,78.248a2.046,2.046,0,0,1,3.858,1.362Zm17.006,15.5L47.378,106.956a2.046,2.046,0,0,1-2.894-2.892l10.4-10.4-9.245-9.245a2.045,2.045,0,0,1,2.892-2.892L59.219,92.222a2.045,2.045,0,0,1,0,2.892Z" transform="translate(0 393.3)" fill="#262626"/>
      <path id="Path_1-98" data-name="Path 1" d="M59.942,68.7H9.882A9.894,9.894,0,0,0,0,78.583V109.9a9.894,9.894,0,0,0,9.882,9.883h50.06a9.894,9.894,0,0,0,9.882-9.883V78.583A9.894,9.894,0,0,0,59.942,68.7ZM25.34,84.423l-10.4,10.4,9.245,9.245a2.045,2.045,0,0,1-2.892,2.892L10.6,96.264a2.045,2.045,0,0,1,0-2.893L22.446,81.53a2.046,2.046,0,1,1,2.894,2.892ZM42.213,79.61,31.4,110.238a2.046,2.046,0,0,1-3.858-1.362L38.355,78.248a2.046,2.046,0,0,1,3.858,1.362Zm17.006,15.5L47.378,106.956a2.046,2.046,0,0,1-2.894-2.892l10.4-10.4-9.245-9.245a2.045,2.045,0,0,1,2.892-2.892L59.219,92.222a2.045,2.045,0,0,1,0,2.892Z" transform="translate(95 393.3)" fill="#262626"/>
      <path id="Path_1-99" data-name="Path 1" d="M59.942,68.7H9.882A9.894,9.894,0,0,0,0,78.583V109.9a9.894,9.894,0,0,0,9.882,9.883h50.06a9.894,9.894,0,0,0,9.882-9.883V78.583A9.894,9.894,0,0,0,59.942,68.7ZM25.34,84.423l-10.4,10.4,9.245,9.245a2.045,2.045,0,0,1-2.892,2.892L10.6,96.264a2.045,2.045,0,0,1,0-2.893L22.446,81.53a2.046,2.046,0,1,1,2.894,2.892ZM42.213,79.61,31.4,110.238a2.046,2.046,0,0,1-3.858-1.362L38.355,78.248a2.046,2.046,0,0,1,3.858,1.362Zm17.006,15.5L47.378,106.956a2.046,2.046,0,0,1-2.894-2.892l10.4-10.4-9.245-9.245a2.045,2.045,0,0,1,2.892-2.892L59.219,92.222a2.045,2.045,0,0,1,0,2.892Z" transform="translate(190 393.3)" fill="#262626"/>
      <path id="Path_1-100" data-name="Path 1" d="M59.942,68.7H9.882A9.894,9.894,0,0,0,0,78.583V109.9a9.894,9.894,0,0,0,9.882,9.883h50.06a9.894,9.894,0,0,0,9.882-9.883V78.583A9.894,9.894,0,0,0,59.942,68.7ZM25.34,84.423l-10.4,10.4,9.245,9.245a2.045,2.045,0,0,1-2.892,2.892L10.6,96.264a2.045,2.045,0,0,1,0-2.893L22.446,81.53a2.046,2.046,0,1,1,2.894,2.892ZM42.213,79.61,31.4,110.238a2.046,2.046,0,0,1-3.858-1.362L38.355,78.248a2.046,2.046,0,0,1,3.858,1.362Zm17.006,15.5L47.378,106.956a2.046,2.046,0,0,1-2.894-2.892l10.4-10.4-9.245-9.245a2.045,2.045,0,0,1,2.892-2.892L59.219,92.222a2.045,2.045,0,0,1,0,2.892Z" transform="translate(285 393.3)" fill="#262626"/>
      <path id="Path_1-101" data-name="Path 1" d="M59.942,68.7H9.882A9.894,9.894,0,0,0,0,78.583V109.9a9.894,9.894,0,0,0,9.882,9.883h50.06a9.894,9.894,0,0,0,9.882-9.883V78.583A9.894,9.894,0,0,0,59.942,68.7ZM25.34,84.423l-10.4,10.4,9.245,9.245a2.045,2.045,0,0,1-2.892,2.892L10.6,96.264a2.045,2.045,0,0,1,0-2.893L22.446,81.53a2.046,2.046,0,1,1,2.894,2.892ZM42.213,79.61,31.4,110.238a2.046,2.046,0,0,1-3.858-1.362L38.355,78.248a2.046,2.046,0,0,1,3.858,1.362Zm17.006,15.5L47.378,106.956a2.046,2.046,0,0,1-2.894-2.892l10.4-10.4-9.245-9.245a2.045,2.045,0,0,1,2.892-2.892L59.219,92.222a2.045,2.045,0,0,1,0,2.892Z" transform="translate(380 393.3)" fill="#262626"/>
      <path id="Path_1-102" data-name="Path 1" d="M59.942,68.7H9.882A9.894,9.894,0,0,0,0,78.583V109.9a9.894,9.894,0,0,0,9.882,9.883h50.06a9.894,9.894,0,0,0,9.882-9.883V78.583A9.894,9.894,0,0,0,59.942,68.7ZM25.34,84.423l-10.4,10.4,9.245,9.245a2.045,2.045,0,0,1-2.892,2.892L10.6,96.264a2.045,2.045,0,0,1,0-2.893L22.446,81.53a2.046,2.046,0,1,1,2.894,2.892ZM42.213,79.61,31.4,110.238a2.046,2.046,0,0,1-3.858-1.362L38.355,78.248a2.046,2.046,0,0,1,3.858,1.362Zm17.006,15.5L47.378,106.956a2.046,2.046,0,0,1-2.894-2.892l10.4-10.4-9.245-9.245a2.045,2.045,0,0,1,2.892-2.892L59.219,92.222a2.045,2.045,0,0,1,0,2.892Z" transform="translate(475 393.3)" fill="#262626"/>
      <path id="Path_1-103" data-name="Path 1" d="M59.942,68.7H9.882A9.894,9.894,0,0,0,0,78.583V109.9a9.894,9.894,0,0,0,9.882,9.883h50.06a9.894,9.894,0,0,0,9.882-9.883V78.583A9.894,9.894,0,0,0,59.942,68.7ZM25.34,84.423l-10.4,10.4,9.245,9.245a2.045,2.045,0,0,1-2.892,2.892L10.6,96.264a2.045,2.045,0,0,1,0-2.893L22.446,81.53a2.046,2.046,0,1,1,2.894,2.892ZM42.213,79.61,31.4,110.238a2.046,2.046,0,0,1-3.858-1.362L38.355,78.248a2.046,2.046,0,0,1,3.858,1.362Zm17.006,15.5L47.378,106.956a2.046,2.046,0,0,1-2.894-2.892l10.4-10.4-9.245-9.245a2.045,2.045,0,0,1,2.892-2.892L59.219,92.222a2.045,2.045,0,0,1,0,2.892Z" transform="translate(570 393.3)" fill="#262626"/>
      <path id="Path_1-104" data-name="Path 1" d="M59.942,68.7H9.882A9.894,9.894,0,0,0,0,78.583V109.9a9.894,9.894,0,0,0,9.882,9.883h50.06a9.894,9.894,0,0,0,9.882-9.883V78.583A9.894,9.894,0,0,0,59.942,68.7ZM25.34,84.423l-10.4,10.4,9.245,9.245a2.045,2.045,0,0,1-2.892,2.892L10.6,96.264a2.045,2.045,0,0,1,0-2.893L22.446,81.53a2.046,2.046,0,1,1,2.894,2.892ZM42.213,79.61,31.4,110.238a2.046,2.046,0,0,1-3.858-1.362L38.355,78.248a2.046,2.046,0,0,1,3.858,1.362Zm17.006,15.5L47.378,106.956a2.046,2.046,0,0,1-2.894-2.892l10.4-10.4-9.245-9.245a2.045,2.045,0,0,1,2.892-2.892L59.219,92.222a2.045,2.045,0,0,1,0,2.892Z" transform="translate(665 393.3)" fill="#262626"/>
      <path id="Path_1-105" data-name="Path 1" d="M59.942,68.7H9.882A9.894,9.894,0,0,0,0,78.583V109.9a9.894,9.894,0,0,0,9.882,9.883h50.06a9.894,9.894,0,0,0,9.882-9.883V78.583A9.894,9.894,0,0,0,59.942,68.7ZM25.34,84.423l-10.4,10.4,9.245,9.245a2.045,2.045,0,0,1-2.892,2.892L10.6,96.264a2.045,2.045,0,0,1,0-2.893L22.446,81.53a2.046,2.046,0,1,1,2.894,2.892ZM42.213,79.61,31.4,110.238a2.046,2.046,0,0,1-3.858-1.362L38.355,78.248a2.046,2.046,0,0,1,3.858,1.362Zm17.006,15.5L47.378,106.956a2.046,2.046,0,0,1-2.894-2.892l10.4-10.4-9.245-9.245a2.045,2.045,0,0,1,2.892-2.892L59.219,92.222a2.045,2.045,0,0,1,0,2.892Z" transform="translate(760 393.3)" fill="#262626"/>
      <path id="Path_1-106" data-name="Path 1" d="M59.942,68.7H9.882A9.894,9.894,0,0,0,0,78.583V109.9a9.894,9.894,0,0,0,9.882,9.883h50.06a9.894,9.894,0,0,0,9.882-9.883V78.583A9.894,9.894,0,0,0,59.942,68.7ZM25.34,84.423l-10.4,10.4,9.245,9.245a2.045,2.045,0,0,1-2.892,2.892L10.6,96.264a2.045,2.045,0,0,1,0-2.893L22.446,81.53a2.046,2.046,0,1,1,2.894,2.892ZM42.213,79.61,31.4,110.238a2.046,2.046,0,0,1-3.858-1.362L38.355,78.248a2.046,2.046,0,0,1,3.858,1.362Zm17.006,15.5L47.378,106.956a2.046,2.046,0,0,1-2.894-2.892l10.4-10.4-9.245-9.245a2.045,2.045,0,0,1,2.892-2.892L59.219,92.222a2.045,2.045,0,0,1,0,2.892Z" transform="translate(855 393.3)" fill="#262626"/>
      <path id="Path_1-107" data-name="Path 1" d="M59.942,68.7H9.882A9.894,9.894,0,0,0,0,78.583V109.9a9.894,9.894,0,0,0,9.882,9.883h50.06a9.894,9.894,0,0,0,9.882-9.883V78.583A9.894,9.894,0,0,0,59.942,68.7ZM25.34,84.423l-10.4,10.4,9.245,9.245a2.045,2.045,0,0,1-2.892,2.892L10.6,96.264a2.045,2.045,0,0,1,0-2.893L22.446,81.53a2.046,2.046,0,1,1,2.894,2.892ZM42.213,79.61,31.4,110.238a2.046,2.046,0,0,1-3.858-1.362L38.355,78.248a2.046,2.046,0,0,1,3.858,1.362Zm17.006,15.5L47.378,106.956a2.046,2.046,0,0,1-2.894-2.892l10.4-10.4-9.245-9.245a2.045,2.045,0,0,1,2.892-2.892L59.219,92.222a2.045,2.045,0,0,1,0,2.892Z" transform="translate(950 393.3)" fill="#262626"/>
      <path id="Path_1-108" data-name="Path 1" d="M59.942,68.7H9.882A9.894,9.894,0,0,0,0,78.583V109.9a9.894,9.894,0,0,0,9.882,9.883h50.06a9.894,9.894,0,0,0,9.882-9.883V78.583A9.894,9.894,0,0,0,59.942,68.7ZM25.34,84.423l-10.4,10.4,9.245,9.245a2.045,2.045,0,0,1-2.892,2.892L10.6,96.264a2.045,2.045,0,0,1,0-2.893L22.446,81.53a2.046,2.046,0,1,1,2.894,2.892ZM42.213,79.61,31.4,110.238a2.046,2.046,0,0,1-3.858-1.362L38.355,78.248a2.046,2.046,0,0,1,3.858,1.362Zm17.006,15.5L47.378,106.956a2.046,2.046,0,0,1-2.894-2.892l10.4-10.4-9.245-9.245a2.045,2.045,0,0,1,2.892-2.892L59.219,92.222a2.045,2.045,0,0,1,0,2.892Z" transform="translate(1045 393.3)" fill="#262626"/>
      <path id="Path_1-109" data-name="Path 1" d="M59.942,68.7H9.882A9.894,9.894,0,0,0,0,78.583V109.9a9.894,9.894,0,0,0,9.882,9.883h50.06a9.894,9.894,0,0,0,9.882-9.883V78.583A9.894,9.894,0,0,0,59.942,68.7ZM25.34,84.423l-10.4,10.4,9.245,9.245a2.045,2.045,0,0,1-2.892,2.892L10.6,96.264a2.045,2.045,0,0,1,0-2.893L22.446,81.53a2.046,2.046,0,1,1,2.894,2.892ZM42.213,79.61,31.4,110.238a2.046,2.046,0,0,1-3.858-1.362L38.355,78.248a2.046,2.046,0,0,1,3.858,1.362Zm17.006,15.5L47.378,106.956a2.046,2.046,0,0,1-2.894-2.892l10.4-10.4-9.245-9.245a2.045,2.045,0,0,1,2.892-2.892L59.219,92.222a2.045,2.045,0,0,1,0,2.892Z" transform="translate(1140 393.3)" fill="#262626"/>
      <path id="Path_1-110" data-name="Path 1" d="M59.942,68.7H9.882A9.894,9.894,0,0,0,0,78.583V109.9a9.894,9.894,0,0,0,9.882,9.883h50.06a9.894,9.894,0,0,0,9.882-9.883V78.583A9.894,9.894,0,0,0,59.942,68.7ZM25.34,84.423l-10.4,10.4,9.245,9.245a2.045,2.045,0,0,1-2.892,2.892L10.6,96.264a2.045,2.045,0,0,1,0-2.893L22.446,81.53a2.046,2.046,0,1,1,2.894,2.892ZM42.213,79.61,31.4,110.238a2.046,2.046,0,0,1-3.858-1.362L38.355,78.248a2.046,2.046,0,0,1,3.858,1.362Zm17.006,15.5L47.378,106.956a2.046,2.046,0,0,1-2.894-2.892l10.4-10.4-9.245-9.245a2.045,2.045,0,0,1,2.892-2.892L59.219,92.222a2.045,2.045,0,0,1,0,2.892Z" transform="translate(1235 393.3)" fill="#262626"/>
      <path id="Path_1-111" data-name="Path 1" d="M59.942,68.7H9.882A9.894,9.894,0,0,0,0,78.583V109.9a9.894,9.894,0,0,0,9.882,9.883h50.06a9.894,9.894,0,0,0,9.882-9.883V78.583A9.894,9.894,0,0,0,59.942,68.7ZM25.34,84.423l-10.4,10.4,9.245,9.245a2.045,2.045,0,0,1-2.892,2.892L10.6,96.264a2.045,2.045,0,0,1,0-2.893L22.446,81.53a2.046,2.046,0,1,1,2.894,2.892ZM42.213,79.61,31.4,110.238a2.046,2.046,0,0,1-3.858-1.362L38.355,78.248a2.046,2.046,0,0,1,3.858,1.362Zm17.006,15.5L47.378,106.956a2.046,2.046,0,0,1-2.894-2.892l10.4-10.4-9.245-9.245a2.045,2.045,0,0,1,2.892-2.892L59.219,92.222a2.045,2.045,0,0,1,0,2.892Z" transform="translate(1330 393.3)" fill="#262626"/>
      <path id="Path_1-112" data-name="Path 1" d="M59.942,68.7H9.882A9.894,9.894,0,0,0,0,78.583V109.9a9.894,9.894,0,0,0,9.882,9.883h50.06a9.894,9.894,0,0,0,9.882-9.883V78.583A9.894,9.894,0,0,0,59.942,68.7ZM25.34,84.423l-10.4,10.4,9.245,9.245a2.045,2.045,0,0,1-2.892,2.892L10.6,96.264a2.045,2.045,0,0,1,0-2.893L22.446,81.53a2.046,2.046,0,1,1,2.894,2.892ZM42.213,79.61,31.4,110.238a2.046,2.046,0,0,1-3.858-1.362L38.355,78.248a2.046,2.046,0,0,1,3.858,1.362Zm17.006,15.5L47.378,106.956a2.046,2.046,0,0,1-2.894-2.892l10.4-10.4-9.245-9.245a2.045,2.045,0,0,1,2.892-2.892L59.219,92.222a2.045,2.045,0,0,1,0,2.892Z" transform="translate(1425 393.3)" fill="#262626"/>
    </g>
    <g id="Group_15" data-name="Group 15" transform="translate(0 -6)">
      <text id="Dev_Dad_Jokes" data-name="Dev Dad Jokes" transform="translate(270 302)" fill="#fff" font-size="144" font-family="Consolas" letter-spacing="-0.025em"><tspan x="0" y="0">Dev</tspan><tspan y="0" font-size="95"> </tspan><tspan y="0">Dad</tspan><tspan y="0" font-size="95"> </tspan><tspan y="0">Jokes</tspan></text>
      <text id="_" data-name="{" transform="translate(161 294)" fill="#fff" font-size="144" font-family="Consolas"><tspan x="0" y="0">{</tspan></text>
      <text id="_2" data-name="}" transform="translate(1261 294)" fill="#fff" font-size="144" font-family="Consolas"><tspan x="0" y="0">}</tspan></text>
    </g>
  </g>
</svg>
